<?xml version="1.0" encoding="UTF-8" standalone="no"?>
<svg
   xmlns:dc="http://purl.org/dc/elements/1.1/"
   xmlns:cc="http://creativecommons.org/ns#"
   xmlns:rdf="http://www.w3.org/1999/02/22-rdf-syntax-ns#"
   xmlns:svg="http://www.w3.org/2000/svg"
   xmlns="http://www.w3.org/2000/svg"
   xmlns:xlink="http://www.w3.org/1999/xlink"
   viewBox="0 0 106.73347 82.123465"
   height="82.123466"
   width="106.73347"
   xml:space="preserve"
   id="svg2"
   version="1.1"><metadata
     id="metadata8"><rdf:RDF><cc:Work
         rdf:about=""><dc:format>image/svg+xml</dc:format><dc:type
           rdf:resource="http://purl.org/dc/dcmitype/StillImage" /><dc:title></dc:title></cc:Work></rdf:RDF></metadata><defs
     id="defs6"><clipPath
       id="clipPath30"
       clipPathUnits="userSpaceOnUse"><path
         id="path28"
         d="M 0,500.003 H 500.003 V 0 H 0 Z" /></clipPath><clipPath
       id="clipPath414"
       clipPathUnits="userSpaceOnUse"><path
         id="path412"
         d="m 211.567,490.858 h 77.161 v -33.894 h -77.161 z" /></clipPath><clipPath
       id="clipPath392"
       clipPathUnits="userSpaceOnUse"><path
         id="path390"
         d="M 0,500 H 500 V 0 H 0 Z" /></clipPath><clipPath
       id="clipPath404"
       clipPathUnits="userSpaceOnUse"><path
         id="path402"
         d="M 48.5122,427.243 H 76.271 V 399.015 H 48.5122 Z" /></clipPath><clipPath
       id="clipPath420"
       clipPathUnits="userSpaceOnUse"><path
         id="path418"
         d="M 51.5342,422.288 H 72.8228 V 402.047 H 51.5342 Z" /></clipPath><clipPath
       id="clipPath436"
       clipPathUnits="userSpaceOnUse"><path
         id="path434"
         d="M 61.9009,439.652 H 88.8652 V 407.491 H 61.9009 Z" /></clipPath><clipPath
       id="clipPath456"
       clipPathUnits="userSpaceOnUse"><path
         id="path454"
         d="m 68.074,439.682 c -11.501,0 -20.822,-9.321 -20.822,-20.822 v 0 c 0,-11.5 9.321,-20.822 20.822,-20.822 v 0 c 11.5,0 20.822,9.322 20.822,20.822 v 0 c 0,11.501 -9.321,20.823 -20.82,20.822 v 0 c 0,0 -0.002,0 -0.002,0" /></clipPath><linearGradient
       id="linearGradient468"
       spreadMethod="pad"
       gradientTransform="matrix(0,-43.162888,-43.162888,0,100.14233,394.85807)"
       gradientUnits="userSpaceOnUse"
       y2="0"
       x2="1"
       y1="0"
       x1="0"><stop
         id="stop462"
         offset="0"
         style="stop-opacity:1;stop-color:#f9ed32" /><stop
         id="stop464"
         offset="0.356781"
         style="stop-opacity:1;stop-color:#f9ed32" /><stop
         id="stop466"
         offset="1"
         style="stop-opacity:1;stop-color:#ebc53b" /></linearGradient><clipPath
       id="clipPath486"
       clipPathUnits="userSpaceOnUse"><path
         id="path484"
         d="m 51.5098,422.292 h 21.3203 v -20.27 H 51.5098 Z" /></clipPath><clipPath
       id="clipPath490"
       clipPathUnits="userSpaceOnUse"><path
         id="path488"
         d="m 59.15,410.494 c -3.725,3.518 -5.087,8.318 -4.451,11.798 -0.595,-0.249 -1.122,-0.602 -1.559,-1.067 -2.798,-2.961 -2.112,-10.155 2.973,-14.96 5.085,-4.805 12.644,-5.398 15.442,-2.438 0.759,0.803 1.172,1.853 1.275,3.052 -3.485,-1.465 -9.441,-0.388 -13.68,3.615" /></clipPath><mask
       id="mask506"
       height="1"
       width="1"
       y="0"
       x="0"
       maskUnits="userSpaceOnUse"><g
         id="g516"><g
           id="g514"
           clip-path="url(#clipPath494)"><g
             id="g512"><g
               id="g510"><path
                 id="path508"
                 style="fill:url(#linearGradient504);stroke:none"
                 d="M -32768,32767 H 32767 V -32767 H -32768 Z" /></g></g></g></g></mask><clipPath
       id="clipPath494"
       clipPathUnits="userSpaceOnUse"><path
         id="path492"
         d="M -32768,32767 H 32767 V -32767 H -32768 Z" /></clipPath><linearGradient
       id="linearGradient504"
       spreadMethod="pad"
       gradientTransform="matrix(-15.616928,-14.893799,-14.893799,15.616943,69.158691,419.02344)"
       gradientUnits="userSpaceOnUse"
       y2="0"
       x2="1"
       y1="0"
       x1="0"><stop
         id="stop496"
         offset="0"
         style="stop-opacity:0;stop-color:#ffffff" /><stop
         id="stop498"
         offset="0.485306"
         style="stop-opacity:0;stop-color:#ffffff" /><stop
         id="stop500"
         offset="0.843933"
         style="stop-opacity:0.73891814;stop-color:#ffffff" /><stop
         id="stop502"
         offset="1"
         style="stop-opacity:0.73891814;stop-color:#ffffff" /></linearGradient><linearGradient
       id="linearGradient526"
       spreadMethod="pad"
       gradientTransform="matrix(-15.616928,-14.893799,-14.893799,15.616943,101.22729,373.88932)"
       gradientUnits="userSpaceOnUse"
       y2="0"
       x2="1"
       y1="0"
       x1="0"><stop
         id="stop518"
         offset="0"
         style="stop-opacity:1;stop-color:#f17442" /><stop
         id="stop520"
         offset="0.485306"
         style="stop-opacity:1;stop-color:#f17442" /><stop
         id="stop522"
         offset="0.843933"
         style="stop-opacity:1;stop-color:#f3a74d" /><stop
         id="stop524"
         offset="1"
         style="stop-opacity:1;stop-color:#f3a74d" /></linearGradient><clipPath
       id="clipPath552"
       clipPathUnits="userSpaceOnUse"><path
         id="path550"
         d="M 61.8916,439.682 H 88.896 V 407.473 H 61.8916 Z" /></clipPath><clipPath
       id="clipPath572"
       clipPathUnits="userSpaceOnUse"><path
         id="path570"
         d="m 63.5166,445.968 h 9.1172 v -2.733 h -9.1172 z" /></clipPath><clipPath
       id="clipPath592"
       clipPathUnits="userSpaceOnUse"><path
         id="path590"
         d="m 63.5166,394.488 h 9.1172 v -2.734 h -9.1172 z" /></clipPath><clipPath
       id="clipPath612"
       clipPathUnits="userSpaceOnUse"><path
         id="path610"
         d="m 92.4468,423.418 h 2.7373 V 414.3 h -2.7373 z" /></clipPath><clipPath
       id="clipPath632"
       clipPathUnits="userSpaceOnUse"><path
         id="path630"
         d="m 40.9663,423.418 h 2.7324 V 414.3 h -2.7324 z" /></clipPath><clipPath
       id="clipPath652"
       clipPathUnits="userSpaceOnUse"><path
         id="path650"
         d="m 82.0854,440.286 h 7.4112 v -7.411 h -7.4112 z" /></clipPath><clipPath
       id="clipPath672"
       clipPathUnits="userSpaceOnUse"><path
         id="path670"
         d="m 46.6489,404.849 h 7.4156 v -7.416 h -7.4156 z" /></clipPath><clipPath
       id="clipPath692"
       clipPathUnits="userSpaceOnUse"><path
         id="path690"
         d="m 46.6489,440.286 h 7.4116 v -7.411 h -7.4116 z" /></clipPath><clipPath
       id="clipPath712"
       clipPathUnits="userSpaceOnUse"><path
         id="path710"
         d="m 82.0854,404.849 h 7.4112 v -7.416 h -7.4112 z" /></clipPath><clipPath
       id="clipPath732"
       clipPathUnits="userSpaceOnUse"><path
         id="path730"
         d="m 63.5166,445.968 h 9.1172 v -2.733 h -9.1172 z" /></clipPath><clipPath
       id="clipPath736"
       clipPathUnits="userSpaceOnUse"><path
         id="path734"
         d="m 72.634,443.235 c -1.478,0.277 -3.002,0.421 -4.561,0.421 -1.555,0 -3.08,-0.144 -4.556,-0.417 0.003,0.195 0.068,0.417 0.207,0.658 0.035,0.066 0.083,0.148 0.134,0.244 0.039,0.064 0.078,0.133 0.118,0.207 0.228,0.411 0.553,0.987 0.909,1.62 0.922,-0.581 2.014,-0.919 3.188,-0.919 1.174,0 2.265,0.338 3.193,0.919 0.116,-0.212 0.234,-0.416 0.342,-0.61 0.069,-0.122 0.134,-0.243 0.199,-0.356 0.277,-0.494 0.498,-0.887 0.619,-1.105 0.139,-0.241 0.204,-0.467 0.208,-0.662" /></clipPath><linearGradient
       id="linearGradient744"
       spreadMethod="pad"
       gradientTransform="matrix(0,-4.2695465,-4.2695465,0,100.1438,401.86686)"
       gradientUnits="userSpaceOnUse"
       y2="0"
       x2="1"
       y1="0"
       x1="0"><stop
         id="stop738"
         offset="0"
         style="stop-opacity:1;stop-color:#f9ed32" /><stop
         id="stop740"
         offset="0.356781"
         style="stop-opacity:1;stop-color:#f9ed32" /><stop
         id="stop742"
         offset="1"
         style="stop-opacity:1;stop-color:#ebc53b" /></linearGradient><clipPath
       id="clipPath770"
       clipPathUnits="userSpaceOnUse"><path
         id="path768"
         d="m 63.5166,394.488 h 9.1172 v -2.734 h -9.1172 z" /></clipPath><clipPath
       id="clipPath774"
       clipPathUnits="userSpaceOnUse"><path
         id="path772"
         d="m 72.634,394.488 c -0.004,-0.196 -0.069,-0.42 -0.208,-0.663 -0.034,-0.061 -0.074,-0.134 -0.121,-0.216 -0.022,-0.039 -0.048,-0.083 -0.069,-0.126 -0.04,-0.069 -0.082,-0.148 -0.126,-0.226 -0.021,-0.039 -0.048,-0.082 -0.07,-0.126 -0.064,-0.112 -0.128,-0.229 -0.199,-0.354 -0.073,-0.13 -0.151,-0.269 -0.233,-0.416 -0.052,-0.087 -0.1,-0.178 -0.151,-0.269 -0.036,-0.06 -0.071,-0.121 -0.101,-0.181 -0.031,-0.052 -0.06,-0.105 -0.09,-0.157 -0.928,0.577 -2.019,0.919 -3.193,0.919 -1.174,0 -2.266,-0.342 -3.188,-0.919 -0.031,0.052 -0.061,0.105 -0.091,0.157 -0.477,0.848 -0.893,1.585 -1.07,1.914 -0.139,0.243 -0.204,0.464 -0.207,0.659 1.476,-0.274 3.001,-0.416 4.556,-0.416 1.559,0 3.083,0.142 4.561,0.42" /></clipPath><linearGradient
       id="linearGradient782"
       spreadMethod="pad"
       gradientTransform="matrix(0,-4.2695465,-4.2695465,0,100.1438,350.38639)"
       gradientUnits="userSpaceOnUse"
       y2="0"
       x2="1"
       y1="0"
       x1="0"><stop
         id="stop776"
         offset="0"
         style="stop-opacity:1;stop-color:#f9ed32" /><stop
         id="stop778"
         offset="0.356781"
         style="stop-opacity:1;stop-color:#f9ed32" /><stop
         id="stop780"
         offset="1"
         style="stop-opacity:1;stop-color:#ebc53b" /></linearGradient><clipPath
       id="clipPath808"
       clipPathUnits="userSpaceOnUse"><path
         id="path806"
         d="m 92.4468,423.418 h 2.7373 V 414.3 h -2.7373 z" /></clipPath><clipPath
       id="clipPath812"
       clipPathUnits="userSpaceOnUse"><path
         id="path810"
         d="m 94.261,418.861 c 0,-1.174 0.343,-2.265 0.918,-3.193 -0.052,-0.03 -0.103,-0.059 -0.155,-0.09 -0.173,-0.095 -0.343,-0.191 -0.507,-0.282 -0.126,-0.069 -0.247,-0.138 -0.36,-0.204 -0.22,-0.125 -0.425,-0.238 -0.593,-0.333 -0.074,-0.038 -0.143,-0.078 -0.208,-0.116 -0.096,-0.053 -0.177,-0.1 -0.242,-0.135 -0.248,-0.138 -0.473,-0.203 -0.667,-0.208 0.277,1.477 0.419,3.002 0.419,4.561 0,1.56 -0.142,3.08 -0.415,4.557 0.195,-0.004 0.415,-0.069 0.663,-0.208 0.216,-0.121 0.61,-0.342 1.103,-0.62 0.114,-0.064 0.235,-0.129 0.356,-0.198 0.195,-0.108 0.398,-0.225 0.611,-0.342 -0.58,-0.924 -0.923,-2.014 -0.923,-3.189" /></clipPath><linearGradient
       id="linearGradient820"
       spreadMethod="pad"
       gradientTransform="matrix(0,-14.242477,-14.242477,0,125.88403,381.72916)"
       gradientUnits="userSpaceOnUse"
       y2="0"
       x2="1"
       y1="0"
       x1="0"><stop
         id="stop814"
         offset="0"
         style="stop-opacity:1;stop-color:#f9ed32" /><stop
         id="stop816"
         offset="0.356781"
         style="stop-opacity:1;stop-color:#f9ed32" /><stop
         id="stop818"
         offset="1"
         style="stop-opacity:1;stop-color:#ebc53b" /></linearGradient><clipPath
       id="clipPath846"
       clipPathUnits="userSpaceOnUse"><path
         id="path844"
         d="m 40.9663,423.418 h 2.7324 V 414.3 h -2.7324 z" /></clipPath><clipPath
       id="clipPath850"
       clipPathUnits="userSpaceOnUse"><path
         id="path848"
         d="m 43.699,414.3 c -0.195,0.005 -0.42,0.07 -0.662,0.208 -0.065,0.035 -0.148,0.082 -0.244,0.135 -0.059,0.034 -0.134,0.073 -0.208,0.116 -0.068,0.039 -0.142,0.078 -0.22,0.126 -0.048,0.026 -0.099,0.057 -0.152,0.082 -0.359,0.203 -0.788,0.442 -1.247,0.701 0.58,0.928 0.918,2.019 0.918,3.193 0,1.175 -0.338,2.265 -0.918,3.189 0.213,0.116 0.416,0.233 0.611,0.342 0.125,0.068 0.242,0.134 0.355,0.198 0.147,0.083 0.286,0.161 0.416,0.235 0.044,0.021 0.082,0.047 0.125,0.069 0.239,0.134 0.433,0.242 0.564,0.316 0.242,0.139 0.463,0.204 0.658,0.208 -0.273,-1.477 -0.416,-2.997 -0.416,-4.557 0,-1.559 0.143,-3.084 0.42,-4.561" /></clipPath><linearGradient
       id="linearGradient858"
       spreadMethod="pad"
       gradientTransform="matrix(0,-14.242477,-14.242477,0,74.40112,381.72916)"
       gradientUnits="userSpaceOnUse"
       y2="0"
       x2="1"
       y1="0"
       x1="0"><stop
         id="stop852"
         offset="0"
         style="stop-opacity:1;stop-color:#f9ed32" /><stop
         id="stop854"
         offset="0.356781"
         style="stop-opacity:1;stop-color:#f9ed32" /><stop
         id="stop856"
         offset="1"
         style="stop-opacity:1;stop-color:#ebc53b" /></linearGradient><clipPath
       id="clipPath884"
       clipPathUnits="userSpaceOnUse"><path
         id="path882"
         d="m 82.0854,440.286 h 7.4112 v -7.411 h -7.4112 z" /></clipPath><clipPath
       id="clipPath888"
       clipPathUnits="userSpaceOnUse"><path
         id="path886"
         d="m 89.497,435.772 c -0.282,-1.014 -0.533,-1.901 -0.641,-2.283 -0.078,-0.269 -0.186,-0.472 -0.33,-0.614 -1.727,2.524 -3.916,4.712 -6.441,6.44 0.144,0.139 0.347,0.247 0.616,0.325 0.048,0.013 0.103,0.03 0.169,0.047 0.06,0.018 0.134,0.035 0.207,0.057 0.373,0.108 0.892,0.256 1.482,0.421 0.138,0.038 0.281,0.081 0.425,0.121 v -0.005 c 0.246,-1.066 0.778,-2.074 1.606,-2.903 0.831,-0.831 1.845,-1.359 2.907,-1.606" /></clipPath><linearGradient
       id="linearGradient896"
       spreadMethod="pad"
       gradientTransform="matrix(0,-11.576111,-11.576111,0,117.85962,397.95133)"
       gradientUnits="userSpaceOnUse"
       y2="0"
       x2="1"
       y1="0"
       x1="0"><stop
         id="stop890"
         offset="0"
         style="stop-opacity:1;stop-color:#f9ed32" /><stop
         id="stop892"
         offset="0.356781"
         style="stop-opacity:1;stop-color:#f9ed32" /><stop
         id="stop894"
         offset="1"
         style="stop-opacity:1;stop-color:#ebc53b" /></linearGradient><clipPath
       id="clipPath922"
       clipPathUnits="userSpaceOnUse"><path
         id="path920"
         d="m 46.6489,404.849 h 7.4156 v -7.416 h -7.4156 z" /></clipPath><clipPath
       id="clipPath926"
       clipPathUnits="userSpaceOnUse"><path
         id="path924"
         d="m 54.064,398.403 c -0.137,-0.134 -0.341,-0.246 -0.614,-0.324 -0.1,-0.026 -0.23,-0.066 -0.39,-0.114 -0.073,-0.015 -0.152,-0.038 -0.238,-0.064 -0.177,-0.048 -0.378,-0.104 -0.594,-0.165 -0.108,-0.03 -0.222,-0.065 -0.338,-0.095 -0.229,-0.069 -0.476,-0.139 -0.727,-0.208 -0.248,1.066 -0.776,2.079 -1.607,2.911 -0.828,0.827 -1.841,1.361 -2.907,1.603 0.048,0.165 0.092,0.321 0.134,0.475 0.108,0.387 0.208,0.746 0.294,1.049 0.092,0.329 0.17,0.594 0.217,0.763 0.079,0.267 0.186,0.472 0.325,0.615 1.734,-2.525 3.92,-4.713 6.445,-6.446" /></clipPath><linearGradient
       id="linearGradient934"
       spreadMethod="pad"
       gradientTransform="matrix(0,-11.58374,-11.58374,0,82.42553,362.51676)"
       gradientUnits="userSpaceOnUse"
       y2="0"
       x2="1"
       y1="0"
       x1="0"><stop
         id="stop928"
         offset="0"
         style="stop-opacity:1;stop-color:#f9ed32" /><stop
         id="stop930"
         offset="0.356781"
         style="stop-opacity:1;stop-color:#f9ed32" /><stop
         id="stop932"
         offset="1"
         style="stop-opacity:1;stop-color:#ebc53b" /></linearGradient><clipPath
       id="clipPath960"
       clipPathUnits="userSpaceOnUse"><path
         id="path958"
         d="m 46.6489,440.286 h 7.4116 v -7.411 h -7.4116 z" /></clipPath><clipPath
       id="clipPath964"
       clipPathUnits="userSpaceOnUse"><path
         id="path962"
         d="m 54.061,439.315 c -2.526,-1.728 -4.714,-3.916 -6.442,-6.44 -0.142,0.142 -0.252,0.345 -0.328,0.614 -0.075,0.26 -0.214,0.762 -0.386,1.378 -0.044,0.151 -0.088,0.311 -0.139,0.48 -0.035,0.139 -0.078,0.281 -0.117,0.425 1.066,0.247 2.079,0.775 2.907,1.606 0.831,0.829 1.359,1.841 1.607,2.908 0.142,-0.04 0.285,-0.083 0.424,-0.121 0.831,-0.235 1.533,-0.434 1.859,-0.525 0.267,-0.078 0.471,-0.186 0.615,-0.325" /></clipPath><linearGradient
       id="linearGradient972"
       spreadMethod="pad"
       gradientTransform="matrix(0,-11.576111,-11.576111,0,82.42358,397.95133)"
       gradientUnits="userSpaceOnUse"
       y2="0"
       x2="1"
       y1="0"
       x1="0"><stop
         id="stop966"
         offset="0"
         style="stop-opacity:1;stop-color:#f9ed32" /><stop
         id="stop968"
         offset="0.356781"
         style="stop-opacity:1;stop-color:#f9ed32" /><stop
         id="stop970"
         offset="1"
         style="stop-opacity:1;stop-color:#ebc53b" /></linearGradient><clipPath
       id="clipPath998"
       clipPathUnits="userSpaceOnUse"><path
         id="path996"
         d="m 82.0854,404.849 h 7.4112 v -7.416 h -7.4112 z" /></clipPath><clipPath
       id="clipPath1002"
       clipPathUnits="userSpaceOnUse"><path
         id="path1000"
         d="m 89.497,401.947 c -1.067,-0.242 -2.076,-0.776 -2.907,-1.603 -0.828,-0.832 -1.36,-1.842 -1.606,-2.906 v -0.005 c -0.144,0.039 -0.287,0.083 -0.425,0.121 -0.542,0.152 -1.023,0.291 -1.386,0.39 -0.074,0.021 -0.144,0.044 -0.203,0.056 -0.109,0.031 -0.197,0.057 -0.269,0.079 -0.269,0.078 -0.472,0.186 -0.616,0.33 2.525,1.727 4.714,3.915 6.441,6.44 0.144,-0.143 0.252,-0.347 0.33,-0.615 0.108,-0.386 0.359,-1.275 0.641,-2.287" /></clipPath><linearGradient
       id="linearGradient1010"
       spreadMethod="pad"
       gradientTransform="matrix(0,-11.58374,-11.58374,0,117.85962,362.51676)"
       gradientUnits="userSpaceOnUse"
       y2="0"
       x2="1"
       y1="0"
       x1="0"><stop
         id="stop1004"
         offset="0"
         style="stop-opacity:1;stop-color:#f9ed32" /><stop
         id="stop1006"
         offset="0.356781"
         style="stop-opacity:1;stop-color:#f9ed32" /><stop
         id="stop1008"
         offset="1"
         style="stop-opacity:1;stop-color:#ebc53b" /></linearGradient><clipPath
       id="clipPath32"
       clipPathUnits="userSpaceOnUse"><path
         id="path30"
         d="M 0,500 H 500 V 0 H 0 Z" /></clipPath><clipPath
       id="clipPath44"
       clipPathUnits="userSpaceOnUse"><path
         id="path42"
         d="m 142.96,426.025 c -0.456,0.039 -0.915,0.064 -1.379,0.064 v 0 c -8.536,0 -15.457,-6.919 -15.457,-15.456 v 0 c 0,-8.536 6.921,-15.457 15.457,-15.457 v 0 h 37.656 c 6.391,0 11.571,5.181 11.571,11.572 v 0 c 0,6.392 -5.18,11.572 -11.571,11.572 v 0 c -0.058,0 -0.115,-0.005 -0.17,-0.005 v 0 c 0.108,0.813 0.17,1.641 0.17,2.484 v 0 c 0,10.226 -8.29,18.515 -18.516,18.515 v 0 c -8.409,0 -15.505,-5.609 -17.761,-13.289" /></clipPath><linearGradient
       id="linearGradient56"
       spreadMethod="pad"
       gradientTransform="matrix(0,-45.62558,-45.62558,0,278.95961,384.74429)"
       gradientUnits="userSpaceOnUse"
       y2="0"
       x2="1"
       y1="0"
       x1="0"><stop
         id="stop50"
         offset="0"
         style="stop-opacity:1;stop-color:#e6e7e8" /><stop
         id="stop52"
         offset="0.47392916"
         style="stop-opacity:1;stop-color:#d1d3d4" /><stop
         id="stop54"
         offset="1"
         style="stop-opacity:1;stop-color:#d1d3d4" /></linearGradient><clipPath
       id="clipPath86"
       clipPathUnits="userSpaceOnUse"><path
         id="path84"
         d="m 127.105,415.502 h 59.526 v -20.326 h -59.526 z" /></clipPath><clipPath
       id="clipPath90"
       clipPathUnits="userSpaceOnUse"><path
         id="path88"
         d="m 143.381,397.12 c -10.163,0 -15.454,8.224 -15.481,18.382 -0.509,-1.533 -0.795,-3.166 -0.795,-4.869 0,-8.537 6.921,-15.457 15.457,-15.457 h 37.656 c 2.373,0 4.578,0.717 6.413,1.943 z" /></clipPath><mask
       id="mask106"
       height="1"
       width="1"
       y="0"
       x="0"
       maskUnits="userSpaceOnUse"><g
         id="g116"><g
           id="g114"
           clip-path="url(#clipPath94)"><g
             id="g112"><g
               id="g110"><path
                 id="path108"
                 style="fill:url(#linearGradient104);stroke:none"
                 d="M -32768,32767 H 32767 V -32767 H -32768 Z" /></g></g></g></g></mask><clipPath
       id="clipPath94"
       clipPathUnits="userSpaceOnUse"><path
         id="path92"
         d="M -32768,32767 H 32767 V -32767 H -32768 Z" /></clipPath><linearGradient
       id="linearGradient104"
       spreadMethod="pad"
       gradientTransform="matrix(59.525879,0,0,-59.525879,127.10547,405.33936)"
       gradientUnits="userSpaceOnUse"
       y2="0"
       x2="1"
       y1="0"
       x1="0"><stop
         id="stop96"
         offset="0"
         style="stop-opacity:0.50000763;stop-color:#ffffff" /><stop
         id="stop98"
         offset="0.206894"
         style="stop-opacity:0.50000763;stop-color:#ffffff" /><stop
         id="stop100"
         offset="0.58277006"
         style="stop-opacity:1;stop-color:#ffffff" /><stop
         id="stop102"
         offset="1"
         style="stop-opacity:1;stop-color:#ffffff" /></linearGradient><linearGradient
       id="linearGradient126"
       spreadMethod="pad"
       gradientTransform="matrix(59.525879,0,0,-59.525879,247.59877,350.02554)"
       gradientUnits="userSpaceOnUse"
       y2="0"
       x2="1"
       y1="0"
       x1="0"><stop
         id="stop118"
         offset="0"
         style="stop-opacity:1;stop-color:#808285" /><stop
         id="stop120"
         offset="0.206894"
         style="stop-opacity:1;stop-color:#808285" /><stop
         id="stop122"
         offset="0.58277006"
         style="stop-opacity:1;stop-color:#d1d3d4" /><stop
         id="stop124"
         offset="1"
         style="stop-opacity:1;stop-color:#d1d3d4" /></linearGradient><clipPath
       id="clipPath160"
       clipPathUnits="userSpaceOnUse"><path
         id="path158"
         d="m 235.793,428.643 c -0.439,0.039 -0.882,0.063 -1.33,0.063 v 0 c -8.237,0 -14.912,-6.676 -14.912,-14.911 v 0 c 0,-8.236 6.675,-14.911 14.912,-14.911 v 0 h 36.327 c 6.164,0 11.161,4.997 11.161,11.162 v 0 c 0,6.166 -4.997,11.165 -11.161,11.165 v 0 c -0.057,0 -0.111,-0.005 -0.166,-0.005 v 0 c 0.104,0.785 0.166,1.582 0.166,2.396 v 0 c 0,9.864 -7.999,17.862 -17.862,17.862 v 0 c -8.114,0 -14.96,-5.412 -17.135,-12.821" /></clipPath><linearGradient
       id="linearGradient172"
       spreadMethod="pad"
       gradientTransform="matrix(0,-44.014435,-44.014435,0,466.51438,387.43133)"
       gradientUnits="userSpaceOnUse"
       y2="0"
       x2="1"
       y1="0"
       x1="0"><stop
         id="stop166"
         offset="0"
         style="stop-opacity:1;stop-color:#e6e7e8" /><stop
         id="stop168"
         offset="0.47392916"
         style="stop-opacity:1;stop-color:#d1d3d4" /><stop
         id="stop170"
         offset="1"
         style="stop-opacity:1;stop-color:#d1d3d4" /></linearGradient><clipPath
       id="clipPath182"
       clipPathUnits="userSpaceOnUse"><path
         id="path180"
         d="m 235.793,428.643 c -0.439,0.039 -0.882,0.063 -1.33,0.063 v 0 c -8.237,0 -14.912,-6.676 -14.912,-14.911 v 0 c 0,-8.236 6.675,-14.911 14.912,-14.911 v 0 h 36.327 c 6.164,0 11.161,4.997 11.161,11.162 v 0 c 0,6.166 -4.997,11.165 -11.161,11.165 v 0 c -0.057,0 -0.111,-0.005 -0.166,-0.005 v 0 c 0.104,0.785 0.166,1.582 0.166,2.396 v 0 c 0,9.864 -7.999,17.862 -17.862,17.862 v 0 c -8.114,0 -14.96,-5.412 -17.135,-12.821" /></clipPath><clipPath
       id="clipPath204"
       clipPathUnits="userSpaceOnUse"><path
         id="path202"
         d="M 0,500 H 500 V 0 H 0 Z" /></clipPath><clipPath
       id="clipPath224"
       clipPathUnits="userSpaceOnUse"><path
         id="path222"
         d="m 219.551,418.492 h 57.427 v -19.608 h -57.427 z" /></clipPath><clipPath
       id="clipPath228"
       clipPathUnits="userSpaceOnUse"><path
         id="path226"
         d="m 235.252,400.757 c -9.805,0 -14.909,7.936 -14.934,17.735 -0.492,-1.478 -0.767,-3.054 -0.767,-4.698 0,-8.235 6.675,-14.91 14.911,-14.91 h 36.328 c 2.287,0 4.413,0.692 6.188,1.873 z" /></clipPath><mask
       id="mask244"
       height="1"
       width="1"
       y="0"
       x="0"
       maskUnits="userSpaceOnUse"><g
         id="g254"><g
           id="g252"
           clip-path="url(#clipPath232)"><g
             id="g250"><g
               id="g248"><path
                 id="path246"
                 style="fill:url(#linearGradient242);stroke:none"
                 d="M -32768,32767 H 32767 V -32767 H -32768 Z" /></g></g></g></g></mask><clipPath
       id="clipPath232"
       clipPathUnits="userSpaceOnUse"><path
         id="path230"
         d="M -32768,32767 H 32767 V -32767 H -32768 Z" /></clipPath><linearGradient
       id="linearGradient242"
       spreadMethod="pad"
       gradientTransform="matrix(57.426269,0,0,-57.426269,219.55127,408.68799)"
       gradientUnits="userSpaceOnUse"
       y2="0"
       x2="1"
       y1="0"
       x1="0"><stop
         id="stop234"
         offset="0"
         style="stop-opacity:0.50000763;stop-color:#ffffff" /><stop
         id="stop236"
         offset="0.206894"
         style="stop-opacity:0.50000763;stop-color:#ffffff" /><stop
         id="stop238"
         offset="0.58277006"
         style="stop-opacity:1;stop-color:#ffffff" /><stop
         id="stop240"
         offset="1"
         style="stop-opacity:1;stop-color:#ffffff" /></linearGradient><linearGradient
       id="linearGradient264"
       spreadMethod="pad"
       gradientTransform="matrix(57.426269,0,0,-57.426269,434.56466,354.68817)"
       gradientUnits="userSpaceOnUse"
       y2="0"
       x2="1"
       y1="0"
       x1="0"><stop
         id="stop256"
         offset="0"
         style="stop-opacity:1;stop-color:#808285" /><stop
         id="stop258"
         offset="0.206894"
         style="stop-opacity:1;stop-color:#808285" /><stop
         id="stop260"
         offset="0.58277006"
         style="stop-opacity:1;stop-color:#d1d3d4" /><stop
         id="stop262"
         offset="1"
         style="stop-opacity:1;stop-color:#d1d3d4" /></linearGradient><clipPath
       id="clipPath314"
       clipPathUnits="userSpaceOnUse"><path
         id="path312"
         d="m 247.693,383.991 c 0.161,-3.336 2.795,-5.408 6.578,-3.844 v 0 c 3.78,1.563 4.182,4.891 1.937,7.365 v 0 c -2.881,3.18 -7.751,6.684 -7.751,6.684 v 0 c 0,0 -0.968,-5.917 -0.764,-10.205" /></clipPath><linearGradient
       id="linearGradient330"
       spreadMethod="pad"
       gradientTransform="matrix(8.3180847,-20.113663,-20.116776,-8.3149719,463.15499,340.96258)"
       gradientUnits="userSpaceOnUse"
       y2="0"
       x2="1"
       y1="0"
       x1="0"><stop
         id="stop320"
         offset="0"
         style="stop-opacity:1;stop-color:#27aae1" /><stop
         id="stop322"
         offset="0.237625"
         style="stop-opacity:1;stop-color:#27aae1" /><stop
         id="stop324"
         offset="0.54007"
         style="stop-opacity:1;stop-color:#297ec1" /><stop
         id="stop326"
         offset="0.710724"
         style="stop-opacity:1;stop-color:#2974ba" /><stop
         id="stop328"
         offset="1"
         style="stop-opacity:1;stop-color:#2974ba" /></linearGradient><clipPath
       id="clipPath340"
       clipPathUnits="userSpaceOnUse"><path
         id="path338"
         d="m 261.6,383.991 c 0.16,-3.336 2.797,-5.408 6.575,-3.844 v 0 c 3.782,1.563 4.187,4.891 1.942,7.365 v 0 c -2.882,3.18 -7.752,6.687 -7.752,6.687 v 0 c 0,0 -0.968,-5.921 -0.765,-10.208" /></clipPath><linearGradient
       id="linearGradient356"
       spreadMethod="pad"
       gradientTransform="matrix(8.3182678,-20.114121,-20.117233,-8.315155,477.06222,340.96454)"
       gradientUnits="userSpaceOnUse"
       y2="0"
       x2="1"
       y1="0"
       x1="0"><stop
         id="stop346"
         offset="0"
         style="stop-opacity:1;stop-color:#27aae1" /><stop
         id="stop348"
         offset="0.237625"
         style="stop-opacity:1;stop-color:#27aae1" /><stop
         id="stop350"
         offset="0.54007"
         style="stop-opacity:1;stop-color:#297ec1" /><stop
         id="stop352"
         offset="0.710724"
         style="stop-opacity:1;stop-color:#2974ba" /><stop
         id="stop354"
         offset="1"
         style="stop-opacity:1;stop-color:#2974ba" /></linearGradient><clipPath
       id="clipPath366"
       clipPathUnits="userSpaceOnUse"><path
         id="path364"
         d="m 234.032,383.991 c 0.156,-3.336 2.796,-5.408 6.572,-3.844 v 0 c 3.785,1.563 4.187,4.891 1.942,7.365 v 0 c -2.882,3.18 -7.752,6.687 -7.752,6.687 v 0 c 0,0 -0.967,-5.921 -0.762,-10.208" /></clipPath><linearGradient
       id="linearGradient382"
       spreadMethod="pad"
       gradientTransform="matrix(8.3182678,-20.114121,-20.117233,-8.315155,449.49191,340.96454)"
       gradientUnits="userSpaceOnUse"
       y2="0"
       x2="1"
       y1="0"
       x1="0"><stop
         id="stop372"
         offset="0"
         style="stop-opacity:1;stop-color:#27aae1" /><stop
         id="stop374"
         offset="0.237625"
         style="stop-opacity:1;stop-color:#27aae1" /><stop
         id="stop376"
         offset="0.54007"
         style="stop-opacity:1;stop-color:#297ec1" /><stop
         id="stop378"
         offset="0.710724"
         style="stop-opacity:1;stop-color:#2974ba" /><stop
         id="stop380"
         offset="1"
         style="stop-opacity:1;stop-color:#2974ba" /></linearGradient><clipPath
       id="clipPath1036"
       clipPathUnits="userSpaceOnUse"><path
         id="path1034"
         d="m 312.149,434.429 h 19.663 v -19.994 h -19.663 z" /></clipPath><clipPath
       id="clipPath1052"
       clipPathUnits="userSpaceOnUse"><path
         id="path1050"
         d="m 314.29,430.919 h 15.08 v -14.335 h -15.08 z" /></clipPath><clipPath
       id="clipPath1068"
       clipPathUnits="userSpaceOnUse"><path
         id="path1066"
         d="m 321.633,443.219 h 19.099 v -22.78 h -19.099 z" /></clipPath><clipPath
       id="clipPath1088"
       clipPathUnits="userSpaceOnUse"><path
         id="path1086"
         d="m 311.257,428.493 c 0,-8.146 6.602,-14.75 14.75,-14.75 v 0 c 8.142,0 14.746,6.604 14.746,14.75 v 0 c 0,8.144 -6.604,14.748 -14.746,14.748 v 0 c -8.148,0 -14.75,-6.604 -14.75,-14.748" /></clipPath><linearGradient
       id="linearGradient1100"
       spreadMethod="pad"
       gradientTransform="matrix(0,-30.572525,-30.572525,0,626.28848,397.67462)"
       gradientUnits="userSpaceOnUse"
       y2="0"
       x2="1"
       y1="0"
       x1="0"><stop
         id="stop1094"
         offset="0"
         style="stop-opacity:1;stop-color:#f9ed32" /><stop
         id="stop1096"
         offset="0.356781"
         style="stop-opacity:1;stop-color:#f9ed32" /><stop
         id="stop1098"
         offset="1"
         style="stop-opacity:1;stop-color:#ebc53b" /></linearGradient><clipPath
       id="clipPath1110"
       clipPathUnits="userSpaceOnUse"><path
         id="path1108"
         d="M 0,500 H 500 V 0 H 0 Z" /></clipPath><clipPath
       id="clipPath1118"
       clipPathUnits="userSpaceOnUse"><path
         id="path1116"
         d="m 314.273,430.923 h 15.103 v -14.357 h -15.103 z" /></clipPath><clipPath
       id="clipPath1122"
       clipPathUnits="userSpaceOnUse"><path
         id="path1120"
         d="m 319.686,422.567 c -2.639,2.491 -3.604,5.891 -3.154,8.356 -0.422,-0.175 -0.795,-0.426 -1.104,-0.756 -1.982,-2.097 -1.496,-7.193 2.105,-10.596 3.602,-3.403 8.956,-3.824 10.938,-1.728 0.539,0.571 0.832,1.314 0.905,2.162 -2.471,-1.038 -6.689,-0.274 -9.69,2.562" /></clipPath><mask
       id="mask1138"
       height="1"
       width="1"
       y="0"
       x="0"
       maskUnits="userSpaceOnUse"><g
         id="g1148"><g
           id="g1146"
           clip-path="url(#clipPath1126)"><g
             id="g1144"><g
               id="g1142"><path
                 id="path1140"
                 style="fill:url(#linearGradient1136);stroke:none"
                 d="M -32768,32767 H 32767 V -32767 H -32768 Z" /></g></g></g></g></mask><clipPath
       id="clipPath1126"
       clipPathUnits="userSpaceOnUse"><path
         id="path1124"
         d="M -32768,32767 H 32767 V -32767 H -32768 Z" /></clipPath><linearGradient
       id="linearGradient1136"
       spreadMethod="pad"
       gradientTransform="matrix(-11.063049,-10.550781,-10.550781,11.063049,326.77441,428.60889)"
       gradientUnits="userSpaceOnUse"
       y2="0"
       x2="1"
       y1="0"
       x1="0"><stop
         id="stop1128"
         offset="0"
         style="stop-opacity:0;stop-color:#ffffff" /><stop
         id="stop1130"
         offset="0.485306"
         style="stop-opacity:0;stop-color:#ffffff" /><stop
         id="stop1132"
         offset="0.843933"
         style="stop-opacity:0.73891814;stop-color:#ffffff" /><stop
         id="stop1134"
         offset="1"
         style="stop-opacity:0.73891814;stop-color:#ffffff" /></linearGradient><linearGradient
       id="linearGradient1158"
       spreadMethod="pad"
       gradientTransform="matrix(-11.063049,-10.550781,-10.550781,11.063049,627.05801,382.82306)"
       gradientUnits="userSpaceOnUse"
       y2="0"
       x2="1"
       y1="0"
       x1="0"><stop
         id="stop1150"
         offset="0"
         style="stop-opacity:1;stop-color:#f17442" /><stop
         id="stop1152"
         offset="0.485306"
         style="stop-opacity:1;stop-color:#f17442" /><stop
         id="stop1154"
         offset="0.843933"
         style="stop-opacity:1;stop-color:#f3a74d" /><stop
         id="stop1156"
         offset="1"
         style="stop-opacity:1;stop-color:#f3a74d" /></linearGradient><clipPath
       id="clipPath1184"
       clipPathUnits="userSpaceOnUse"><path
         id="path1182"
         d="m 321.626,443.241 h 19.127 v -22.815 h -19.127 z" /></clipPath><clipPath
       id="clipPath1204"
       clipPathUnits="userSpaceOnUse"><path
         id="path1202"
         d="m 322.777,447.693 h 6.458 v -1.936 h -6.458 z" /></clipPath><clipPath
       id="clipPath1224"
       clipPathUnits="userSpaceOnUse"><path
         id="path1222"
         d="m 322.777,411.228 h 6.458 v -1.935 h -6.458 z" /></clipPath><clipPath
       id="clipPath1244"
       clipPathUnits="userSpaceOnUse"><path
         id="path1242"
         d="m 343.27,431.721 h 1.936 v -6.459 h -1.936 z" /></clipPath><clipPath
       id="clipPath1264"
       clipPathUnits="userSpaceOnUse"><path
         id="path1262"
         d="m 306.805,431.72 h 1.934 v -6.458 h -1.934 z" /></clipPath><clipPath
       id="clipPath1284"
       clipPathUnits="userSpaceOnUse"><path
         id="path1282"
         d="m 335.93,443.668 h 5.249 v -5.251 h -5.249 z" /></clipPath><clipPath
       id="clipPath1304"
       clipPathUnits="userSpaceOnUse"><path
         id="path1302"
         d="m 310.83,418.568 h 5.253 v -5.253 h -5.253 z" /></clipPath><clipPath
       id="clipPath1324"
       clipPathUnits="userSpaceOnUse"><path
         id="path1322"
         d="m 310.83,443.668 h 5.25 v -5.251 h -5.25 z" /></clipPath><clipPath
       id="clipPath1344"
       clipPathUnits="userSpaceOnUse"><path
         id="path1342"
         d="m 335.93,418.568 h 5.249 v -5.253 h -5.249 z" /></clipPath><clipPath
       id="clipPath1364"
       clipPathUnits="userSpaceOnUse"><path
         id="path1362"
         d="m 322.777,447.693 h 6.458 v -1.936 h -6.458 z" /></clipPath><clipPath
       id="clipPath1368"
       clipPathUnits="userSpaceOnUse"><path
         id="path1366"
         d="m 329.235,445.757 c -1.046,0.197 -2.125,0.298 -3.23,0.298 -1.1,0 -2.182,-0.101 -3.228,-0.295 0.003,0.138 0.049,0.295 0.148,0.466 0.024,0.046 0.058,0.105 0.095,0.173 0.027,0.045 0.055,0.095 0.083,0.146 0.162,0.292 0.391,0.7 0.643,1.148 0.654,-0.41 1.427,-0.651 2.259,-0.651 0.832,0 1.603,0.241 2.261,0.651 0.083,-0.151 0.167,-0.295 0.244,-0.432 0.048,-0.087 0.095,-0.173 0.141,-0.252 0.196,-0.349 0.353,-0.63 0.437,-0.783 0.098,-0.171 0.145,-0.33 0.147,-0.469" /></clipPath><linearGradient
       id="linearGradient1376"
       spreadMethod="pad"
       gradientTransform="matrix(0,-3.0233002,-3.0233002,0,626.28946,402.63849)"
       gradientUnits="userSpaceOnUse"
       y2="0"
       x2="1"
       y1="0"
       x1="0"><stop
         id="stop1370"
         offset="0"
         style="stop-opacity:1;stop-color:#f9ed32" /><stop
         id="stop1372"
         offset="0.356781"
         style="stop-opacity:1;stop-color:#f9ed32" /><stop
         id="stop1374"
         offset="1"
         style="stop-opacity:1;stop-color:#ebc53b" /></linearGradient><clipPath
       id="clipPath1402"
       clipPathUnits="userSpaceOnUse"><path
         id="path1400"
         d="m 322.777,411.228 h 6.458 v -1.935 h -6.458 z" /></clipPath><clipPath
       id="clipPath1406"
       clipPathUnits="userSpaceOnUse"><path
         id="path1404"
         d="m 329.235,411.228 c -0.002,-0.138 -0.049,-0.297 -0.147,-0.469 -0.023,-0.043 -0.052,-0.095 -0.084,-0.153 -0.018,-0.027 -0.034,-0.059 -0.05,-0.09 -0.029,-0.049 -0.058,-0.103 -0.088,-0.158 -0.015,-0.028 -0.035,-0.059 -0.052,-0.091 -0.044,-0.078 -0.09,-0.161 -0.14,-0.251 -0.052,-0.092 -0.108,-0.189 -0.164,-0.294 -0.037,-0.061 -0.072,-0.125 -0.108,-0.189 -0.025,-0.043 -0.049,-0.086 -0.073,-0.13 -0.02,-0.036 -0.04,-0.073 -0.063,-0.11 -0.658,0.407 -1.429,0.651 -2.261,0.651 -0.832,0 -1.605,-0.244 -2.259,-0.651 -0.021,0.037 -0.043,0.074 -0.063,0.11 -0.339,0.601 -0.633,1.123 -0.758,1.356 -0.099,0.172 -0.145,0.328 -0.148,0.467 1.046,-0.193 2.128,-0.295 3.228,-0.295 1.105,0 2.184,0.102 3.23,0.297" /></clipPath><linearGradient
       id="linearGradient1414"
       spreadMethod="pad"
       gradientTransform="matrix(0,-3.0217743,-3.0217743,0,626.28946,366.17315)"
       gradientUnits="userSpaceOnUse"
       y2="0"
       x2="1"
       y1="0"
       x1="0"><stop
         id="stop1408"
         offset="0"
         style="stop-opacity:1;stop-color:#f9ed32" /><stop
         id="stop1410"
         offset="0.356781"
         style="stop-opacity:1;stop-color:#f9ed32" /><stop
         id="stop1412"
         offset="1"
         style="stop-opacity:1;stop-color:#ebc53b" /></linearGradient><clipPath
       id="clipPath1440"
       clipPathUnits="userSpaceOnUse"><path
         id="path1438"
         d="m 343.27,431.721 h 1.936 v -6.459 h -1.936 z" /></clipPath><clipPath
       id="clipPath1444"
       clipPathUnits="userSpaceOnUse"><path
         id="path1442"
         d="m 344.555,428.493 c 0,-0.831 0.242,-1.605 0.649,-2.261 l -0.108,-0.065 c -0.125,-0.067 -0.244,-0.133 -0.361,-0.199 -0.09,-0.049 -0.176,-0.097 -0.255,-0.144 -0.157,-0.089 -0.3,-0.169 -0.419,-0.237 -0.054,-0.026 -0.102,-0.055 -0.148,-0.082 -0.069,-0.037 -0.127,-0.071 -0.173,-0.095 -0.174,-0.098 -0.335,-0.144 -0.47,-0.148 0.195,1.046 0.296,2.127 0.296,3.231 0,1.104 -0.101,2.182 -0.295,3.228 0.14,-0.005 0.295,-0.05 0.469,-0.148 0.154,-0.085 0.434,-0.242 0.782,-0.438 0.081,-0.046 0.167,-0.093 0.251,-0.141 0.14,-0.077 0.284,-0.161 0.433,-0.243 -0.409,-0.654 -0.651,-1.426 -0.651,-2.258" /></clipPath><linearGradient
       id="linearGradient1452"
       spreadMethod="pad"
       gradientTransform="matrix(0,-10.088867,-10.088867,0,644.52188,388.3753)"
       gradientUnits="userSpaceOnUse"
       y2="0"
       x2="1"
       y1="0"
       x1="0"><stop
         id="stop1446"
         offset="0"
         style="stop-opacity:1;stop-color:#f9ed32" /><stop
         id="stop1448"
         offset="0.356781"
         style="stop-opacity:1;stop-color:#f9ed32" /><stop
         id="stop1450"
         offset="1"
         style="stop-opacity:1;stop-color:#ebc53b" /></linearGradient><clipPath
       id="clipPath1478"
       clipPathUnits="userSpaceOnUse"><path
         id="path1476"
         d="m 306.805,431.72 h 1.934 v -6.458 h -1.934 z" /></clipPath><clipPath
       id="clipPath1482"
       clipPathUnits="userSpaceOnUse"><path
         id="path1480"
         d="m 308.739,425.262 c -0.136,0.004 -0.297,0.05 -0.468,0.148 -0.046,0.024 -0.104,0.058 -0.172,0.095 -0.041,0.024 -0.095,0.052 -0.147,0.082 -0.05,0.028 -0.101,0.055 -0.157,0.09 -0.033,0.018 -0.07,0.04 -0.107,0.058 -0.255,0.144 -0.558,0.312 -0.883,0.497 0.41,0.656 0.65,1.43 0.65,2.261 0,0.832 -0.24,1.604 -0.65,2.258 0.151,0.082 0.295,0.166 0.432,0.243 0.088,0.048 0.172,0.095 0.251,0.141 0.105,0.059 0.203,0.114 0.295,0.166 0.031,0.014 0.059,0.032 0.088,0.049 0.17,0.095 0.308,0.171 0.4,0.223 0.171,0.098 0.329,0.143 0.466,0.147 -0.193,-1.045 -0.295,-2.123 -0.295,-3.227 0,-1.104 0.102,-2.185 0.297,-3.231" /></clipPath><linearGradient
       id="linearGradient1490"
       spreadMethod="pad"
       gradientTransform="matrix(0,-10.087341,-10.087341,0,608.05508,388.37433)"
       gradientUnits="userSpaceOnUse"
       y2="0"
       x2="1"
       y1="0"
       x1="0"><stop
         id="stop1484"
         offset="0"
         style="stop-opacity:1;stop-color:#f9ed32" /><stop
         id="stop1486"
         offset="0.356781"
         style="stop-opacity:1;stop-color:#f9ed32" /><stop
         id="stop1488"
         offset="1"
         style="stop-opacity:1;stop-color:#ebc53b" /></linearGradient><clipPath
       id="clipPath1516"
       clipPathUnits="userSpaceOnUse"><path
         id="path1514"
         d="m 335.93,443.668 h 5.249 v -5.251 h -5.249 z" /></clipPath><clipPath
       id="clipPath1520"
       clipPathUnits="userSpaceOnUse"><path
         id="path1518"
         d="m 341.179,440.47 c -0.2,-0.717 -0.378,-1.346 -0.452,-1.616 -0.058,-0.19 -0.133,-0.334 -0.235,-0.437 -1.224,1.79 -2.774,3.34 -4.562,4.563 0.099,0.099 0.246,0.175 0.435,0.23 0.034,0.01 0.074,0.022 0.12,0.035 0.043,0.012 0.095,0.024 0.146,0.039 0.265,0.077 0.633,0.181 1.051,0.299 0.097,0.027 0.199,0.056 0.3,0.085 v -0.003 c 0.174,-0.754 0.552,-1.469 1.138,-2.056 0.589,-0.589 1.308,-0.964 2.059,-1.139" /></clipPath><linearGradient
       id="linearGradient1528"
       spreadMethod="pad"
       gradientTransform="matrix(0,-8.2019653,-8.2019653,0,638.83829,399.86651)"
       gradientUnits="userSpaceOnUse"
       y2="0"
       x2="1"
       y1="0"
       x1="0"><stop
         id="stop1522"
         offset="0"
         style="stop-opacity:1;stop-color:#f9ed32" /><stop
         id="stop1524"
         offset="0.356781"
         style="stop-opacity:1;stop-color:#f9ed32" /><stop
         id="stop1526"
         offset="1"
         style="stop-opacity:1;stop-color:#ebc53b" /></linearGradient><clipPath
       id="clipPath1554"
       clipPathUnits="userSpaceOnUse"><path
         id="path1552"
         d="m 310.83,418.568 h 5.253 v -5.253 h -5.253 z" /></clipPath><clipPath
       id="clipPath1558"
       clipPathUnits="userSpaceOnUse"><path
         id="path1556"
         d="m 316.083,414.002 c -0.098,-0.095 -0.243,-0.174 -0.437,-0.23 -0.069,-0.018 -0.163,-0.046 -0.275,-0.079 -0.052,-0.012 -0.107,-0.028 -0.169,-0.047 -0.126,-0.034 -0.267,-0.073 -0.421,-0.116 -0.076,-0.022 -0.157,-0.047 -0.239,-0.069 -0.163,-0.047 -0.337,-0.096 -0.516,-0.146 -0.173,0.754 -0.547,1.473 -1.137,2.062 -0.587,0.586 -1.304,0.963 -2.059,1.135 0.033,0.117 0.066,0.228 0.094,0.338 0.077,0.273 0.147,0.527 0.209,0.742 0.065,0.233 0.121,0.421 0.154,0.539 0.056,0.192 0.132,0.336 0.231,0.437 1.226,-1.789 2.775,-3.339 4.565,-4.566" /></clipPath><linearGradient
       id="linearGradient1566"
       spreadMethod="pad"
       gradientTransform="matrix(0,-8.2050171,-8.2050171,0,613.74063,374.76642)"
       gradientUnits="userSpaceOnUse"
       y2="0"
       x2="1"
       y1="0"
       x1="0"><stop
         id="stop1560"
         offset="0"
         style="stop-opacity:1;stop-color:#f9ed32" /><stop
         id="stop1562"
         offset="0.356781"
         style="stop-opacity:1;stop-color:#f9ed32" /><stop
         id="stop1564"
         offset="1"
         style="stop-opacity:1;stop-color:#ebc53b" /></linearGradient><clipPath
       id="clipPath1592"
       clipPathUnits="userSpaceOnUse"><path
         id="path1590"
         d="m 310.83,443.668 h 5.25 v -5.251 h -5.25 z" /></clipPath><clipPath
       id="clipPath1596"
       clipPathUnits="userSpaceOnUse"><path
         id="path1594"
         d="m 316.08,442.98 c -1.789,-1.223 -3.34,-2.773 -4.562,-4.563 -0.101,0.103 -0.18,0.247 -0.234,0.437 -0.053,0.185 -0.151,0.54 -0.273,0.976 -0.031,0.107 -0.062,0.22 -0.098,0.34 -0.025,0.098 -0.056,0.2 -0.083,0.3 0.755,0.175 1.472,0.55 2.059,1.139 0.59,0.587 0.964,1.304 1.137,2.059 0.102,-0.029 0.203,-0.058 0.301,-0.085 0.59,-0.166 1.087,-0.307 1.317,-0.373 0.19,-0.055 0.335,-0.131 0.436,-0.23" /></clipPath><linearGradient
       id="linearGradient1604"
       spreadMethod="pad"
       gradientTransform="matrix(0,-8.2019653,-8.2019653,0,613.73868,399.86651)"
       gradientUnits="userSpaceOnUse"
       y2="0"
       x2="1"
       y1="0"
       x1="0"><stop
         id="stop1598"
         offset="0"
         style="stop-opacity:1;stop-color:#f9ed32" /><stop
         id="stop1600"
         offset="0.356781"
         style="stop-opacity:1;stop-color:#f9ed32" /><stop
         id="stop1602"
         offset="1"
         style="stop-opacity:1;stop-color:#ebc53b" /></linearGradient><clipPath
       id="clipPath1630"
       clipPathUnits="userSpaceOnUse"><path
         id="path1628"
         d="m 335.93,418.568 h 5.249 v -5.253 h -5.249 z" /></clipPath><clipPath
       id="clipPath1634"
       clipPathUnits="userSpaceOnUse"><path
         id="path1632"
         d="m 341.179,416.512 c -0.755,-0.172 -1.47,-0.549 -2.059,-1.135 -0.586,-0.589 -0.964,-1.305 -1.138,-2.059 v -0.003 c -0.101,0.028 -0.203,0.059 -0.3,0.087 -0.384,0.106 -0.725,0.204 -0.982,0.275 -0.054,0.016 -0.101,0.031 -0.143,0.039 -0.078,0.023 -0.14,0.042 -0.192,0.056 -0.189,0.056 -0.336,0.133 -0.435,0.234 1.788,1.223 3.338,2.773 4.562,4.562 0.102,-0.101 0.177,-0.245 0.235,-0.437 0.074,-0.271 0.252,-0.902 0.452,-1.619" /></clipPath><linearGradient
       id="linearGradient1642"
       spreadMethod="pad"
       gradientTransform="matrix(0,-8.2050171,-8.2050171,0,638.83829,374.76642)"
       gradientUnits="userSpaceOnUse"
       y2="0"
       x2="1"
       y1="0"
       x1="0"><stop
         id="stop1636"
         offset="0"
         style="stop-opacity:1;stop-color:#f9ed32" /><stop
         id="stop1638"
         offset="0.356781"
         style="stop-opacity:1;stop-color:#f9ed32" /><stop
         id="stop1640"
         offset="1"
         style="stop-opacity:1;stop-color:#ebc53b" /></linearGradient><clipPath
       id="clipPath1672"
       clipPathUnits="userSpaceOnUse"><path
         id="path1670"
         d="m 335.681,422.857 c -0.385,0.034 -0.775,0.056 -1.169,0.056 v 0 c -7.241,0 -13.106,-5.869 -13.106,-13.106 v 0 c 0,-7.239 5.865,-13.106 13.106,-13.106 v 0 h 31.93 c 5.419,0 9.811,4.391 9.811,9.81 v 0 c 0,5.42 -4.392,9.814 -9.811,9.814 v 0 c -0.049,0 -0.097,-0.004 -0.145,-0.004 v 0 c 0.092,0.689 0.145,1.391 0.145,2.105 v 0 c 0,8.672 -7.031,15.701 -15.699,15.701 v 0 c -7.133,0 -13.149,-4.757 -15.062,-11.27" /></clipPath><linearGradient
       id="linearGradient1684"
       spreadMethod="pad"
       gradientTransform="matrix(0,-38.687408,-38.687408,0,649.86368,388.2215)"
       gradientUnits="userSpaceOnUse"
       y2="0"
       x2="1"
       y1="0"
       x1="0"><stop
         id="stop1678"
         offset="0"
         style="stop-opacity:1;stop-color:#e6e7e8" /><stop
         id="stop1680"
         offset="0.47392916"
         style="stop-opacity:1;stop-color:#d1d3d4" /><stop
         id="stop1682"
         offset="1"
         style="stop-opacity:1;stop-color:#d1d3d4" /></linearGradient><clipPath
       id="clipPath1694"
       clipPathUnits="userSpaceOnUse"><path
         id="path1692"
         d="m 335.681,422.857 c -0.385,0.034 -0.775,0.056 -1.169,0.056 v 0 c -7.241,0 -13.106,-5.869 -13.106,-13.106 v 0 c 0,-7.239 5.865,-13.106 13.106,-13.106 v 0 h 31.93 c 5.419,0 9.811,4.391 9.811,9.81 v 0 c 0,5.42 -4.392,9.814 -9.811,9.814 v 0 c -0.049,0 -0.097,-0.004 -0.145,-0.004 v 0 c 0.092,0.689 0.145,1.391 0.145,2.105 v 0 c 0,8.672 -7.031,15.701 -15.699,15.701 v 0 c -7.133,0 -13.149,-4.757 -15.062,-11.27" /></clipPath><clipPath
       id="clipPath1736"
       clipPathUnits="userSpaceOnUse"><path
         id="path1734"
         d="m 321.406,413.935 h 50.475 v -17.234 h -50.475 z" /></clipPath><clipPath
       id="clipPath1740"
       clipPathUnits="userSpaceOnUse"><path
         id="path1738"
         d="m 335.206,398.346 c -8.618,0 -13.105,6.976 -13.127,15.589 -0.433,-1.299 -0.673,-2.685 -0.673,-4.128 0,-7.239 5.865,-13.106 13.106,-13.106 h 31.93 c 2.012,0 3.88,0.607 5.439,1.645 z" /></clipPath><mask
       id="mask1756"
       height="1"
       width="1"
       y="0"
       x="0"
       maskUnits="userSpaceOnUse"><g
         id="g1766"><g
           id="g1764"
           clip-path="url(#clipPath1744)"><g
             id="g1762"><g
               id="g1760"><path
                 id="path1758"
                 style="fill:url(#linearGradient1754);stroke:none"
                 d="M -32768,32767 H 32767 V -32767 H -32768 Z" /></g></g></g></g></mask><clipPath
       id="clipPath1744"
       clipPathUnits="userSpaceOnUse"><path
         id="path1742"
         d="M -32768,32767 H 32767 V -32767 H -32768 Z" /></clipPath><linearGradient
       id="linearGradient1754"
       spreadMethod="pad"
       gradientTransform="matrix(50.474609,0,0,-50.474609,321.40625,405.31787)"
       gradientUnits="userSpaceOnUse"
       y2="0"
       x2="1"
       y1="0"
       x1="0"><stop
         id="stop1746"
         offset="0"
         style="stop-opacity:0.50000763;stop-color:#ffffff" /><stop
         id="stop1748"
         offset="0.206894"
         style="stop-opacity:0.50000763;stop-color:#ffffff" /><stop
         id="stop1750"
         offset="0.58277006"
         style="stop-opacity:1;stop-color:#ffffff" /><stop
         id="stop1752"
         offset="1"
         style="stop-opacity:1;stop-color:#ffffff" /></linearGradient><linearGradient
       id="linearGradient1776"
       spreadMethod="pad"
       gradientTransform="matrix(50.474609,0,0,-50.474609,621.68985,359.53204)"
       gradientUnits="userSpaceOnUse"
       y2="0"
       x2="1"
       y1="0"
       x1="0"><stop
         id="stop1768"
         offset="0"
         style="stop-opacity:1;stop-color:#808285" /><stop
         id="stop1770"
         offset="0.206894"
         style="stop-opacity:1;stop-color:#808285" /><stop
         id="stop1772"
         offset="0.58277006"
         style="stop-opacity:1;stop-color:#d1d3d4" /><stop
         id="stop1774"
         offset="1"
         style="stop-opacity:1;stop-color:#d1d3d4" /></linearGradient><linearGradient
       spreadMethod="pad"
       y2="0"
       x2="1"
       y1="0"
       x1="0"
       gradientTransform="matrix(0,-38.687408,-38.687408,0,649.11368,388.97149)"
       gradientUnits="userSpaceOnUse"
       id="linearGradient5211"
       xlink:href="#linearGradient1684" /><linearGradient
       spreadMethod="pad"
       y2="0"
       x2="1"
       y1="0"
       x1="0"
       gradientTransform="matrix(0,-38.687408,-38.687408,0,649.11368,388.97149)"
       gradientUnits="userSpaceOnUse"
       id="linearGradient5213"
       xlink:href="#linearGradient1684" /></defs><g
     transform="matrix(1.3333333,0,0,-1.3333333,-371.99291,571.50802)"
     id="g10"><g
       id="g7734"
       transform="translate(-21.288914,-25.583171)"><g
         id="g1026"
         transform="translate(340.7324,428.4927)"><path
           d="m 0,0 c 0,-8.134 -6.594,-14.728 -14.726,-14.728 -8.134,0 -14.728,6.594 -14.728,14.728 0,8.134 6.594,14.727 14.728,14.727 C -6.594,14.727 0,8.134 0,0"
           style="fill:#ffffff;fill-opacity:1;fill-rule:nonzero;stroke:none"
           id="path1028" /></g><g
         id="g1030"><g
           id="g1032" /><g
           id="g1044"><g
             clip-path="url(#clipPath1036)"
             id="g1042"
             style="opacity:0.30000299"><g
               transform="translate(324.7881,414.4351)"
               id="g1040"><path
                 d="m 0,0 c -3.081,0 -6.339,1.342 -8.717,3.588 -4.162,3.933 -5.206,10.423 -2.189,13.617 0.511,0.541 1.13,0.965 1.835,1.261 l 3.652,1.528 -0.71,-3.895 c -0.302,-1.654 0.355,-4.361 2.51,-6.397 1.882,-1.78 4.211,-2.414 5.762,-2.414 0.624,0 1.179,0.096 1.605,0.275 L 7.023,8.941 6.722,5.4 C 6.605,4.045 6.094,2.853 5.241,1.95 4.055,0.692 2.192,0 0,0"
                 style="fill:#ffffff;fill-opacity:1;fill-rule:nonzero;stroke:none"
                 id="path1038" /></g></g></g></g><g
         id="g1046"><g
           id="g1048" /><g
           id="g1060"><g
             clip-path="url(#clipPath1052)"
             id="g1058"
             style="opacity:0.30000299"><g
               transform="translate(319.6934,422.5757)"
               id="g1056"><path
                 d="M 0,0 C -2.634,2.488 -3.598,5.883 -3.147,8.344 -3.568,8.168 -3.94,7.918 -4.251,7.59 -6.229,5.495 -5.743,0.406 -2.146,-2.991 1.449,-6.389 6.796,-6.81 8.775,-4.716 9.313,-4.148 9.605,-3.405 9.677,-2.557 7.21,-3.594 2.998,-2.832 0,0"
                 style="fill:#ffffff;fill-opacity:1;fill-rule:nonzero;stroke:none"
                 id="path1054" /></g></g></g></g><g
         id="g1062"><g
           id="g1064" /><g
           id="g1076"><g
             clip-path="url(#clipPath1068)"
             id="g1074"
             style="opacity:0.10000598"><g
               transform="translate(322.8535,442.6079)"
               id="g1072"><path
                 d="m 0,0 c 9.107,0 16.485,-7.38 16.485,-16.483 0,-1.999 -0.356,-3.914 -1.006,-5.686 1.514,2.315 2.4,5.08 2.4,8.054 0,8.134 -6.594,14.726 -14.726,14.726 -1.524,0 -2.992,-0.231 -4.374,-0.66 C -0.816,-0.019 -0.411,0 0,0"
                 style="fill:#ffffff;fill-opacity:1;fill-rule:nonzero;stroke:none"
                 id="path1070" /></g></g></g></g><g
         id="g1078"
         transform="translate(331.2646,410.4292)"><path
           d="M 0,0 C 0.029,0.01 0.058,0.017 0.089,0.026 L -0.128,-0.368 C -0.078,-0.247 -0.036,-0.123 0,0 m -10.563,0.014 c 0.016,-0.005 0.034,-0.01 0.051,-0.015 0.019,-0.063 0.038,-0.126 0.06,-0.189 z m 28.521,20.519 -0.155,0.088 c -0.24,0.135 -1.106,0.62 -2.008,1.125 l -1.213,0.68 0.036,0.04 c 0,0 -1.812,1.258 -2.389,3.08 -0.497,1.572 -0.318,3.394 -0.261,3.864 0.006,0.017 0.01,0.034 0.013,0.05 l 0.915,3.24 c 0.183,0.635 0.567,1.956 -0.499,3.021 -0.465,0.466 -1.097,0.721 -1.778,0.721 -0.46,0 -0.847,-0.11 -1.219,-0.217 0,0 -2.527,-0.714 -3.25,-0.917 C 6.047,35.279 5.947,35.252 5.838,35.221 5.696,35.182 5.563,35.143 5.432,35.106 4.661,34.998 3.598,34.959 2.619,35.313 c -1.768,0.641 -3.265,2.176 -3.307,2.221 l -0.045,0.081 c -0.042,0.081 -0.092,0.166 -0.14,0.253 l -0.252,0.445 c -0.632,1.131 -1.402,2.5 -1.573,2.805 l -0.082,0.15 c -0.293,0.529 -0.974,1.767 -2.48,1.767 -1.503,0 -2.164,-1.199 -2.482,-1.774 l -0.076,-0.138 c -0.175,-0.31 -0.94,-1.679 -1.574,-2.808 l -0.482,-0.859 c -0.337,-0.331 -1.678,-1.581 -3.229,-2.143 -1.008,-0.366 -2.112,-0.312 -2.886,-0.196 l -0.434,0.122 c -0.064,0.018 -0.129,0.036 -0.194,0.055 l -0.777,0.219 c -1.04,0.293 -2.072,0.582 -2.364,0.666 l -0.167,0.048 c -0.372,0.105 -0.755,0.215 -1.215,0.215 -0.68,0 -1.31,-0.255 -1.778,-0.722 -1.058,-1.059 -0.684,-2.363 -0.505,-2.99 l 0.047,-0.166 c 0.063,-0.224 0.267,-0.948 0.498,-1.771 l 0.399,-1.418 c 0.061,-0.521 0.22,-2.293 -0.265,-3.829 -0.575,-1.822 -2.389,-3.08 -2.389,-3.08 l 0.036,-0.039 -3.383,-1.896 c -0.524,-0.291 -1.751,-0.971 -1.751,-2.468 0,-1.503 1.238,-2.186 1.765,-2.477 l 0.148,-0.081 c 0.31,-0.174 1.676,-0.943 2.799,-1.572 l 0.407,-0.228 c 0.203,-0.146 1.828,-1.356 2.368,-3.064 0.531,-1.682 0.292,-3.652 0.252,-3.943 -0.004,-0.012 -0.007,-0.022 -0.008,-0.029 -0.354,-1.251 -0.78,-2.764 -0.875,-3.103 l -0.046,-0.165 c -0.181,-0.628 -0.557,-1.934 0.491,-2.981 0.468,-0.476 1.105,-0.737 1.792,-0.737 0.467,0 0.856,0.113 1.233,0.223 l 0.148,0.042 3.091,0.867 c 0.181,0.051 0.36,0.101 0.526,0.15 0.028,0.008 0.17,0.049 0.324,0.091 0.76,0.098 1.777,0.121 2.713,-0.219 1.508,-0.547 2.815,-1.742 3.198,-2.111 0.074,-0.134 0.155,-0.279 0.244,-0.436 l 1.916,-3.421 c 0.319,-0.576 0.982,-1.776 2.485,-1.776 1.506,0 2.163,1.194 2.482,1.768 l 0.075,0.136 c 0.18,0.32 0.996,1.774 1.643,2.928 l 0.016,0.028 0.021,0.043 0.368,0.653 C -0.419,-1.116 0.98,0.243 2.619,0.837 3.527,1.166 4.512,1.156 5.264,1.065 5.535,0.99 5.836,0.904 5.836,0.904 c 0,0 0.223,-0.061 0.316,-0.087 L 7.795,0.355 C 8.479,0.162 9.048,0.001 9.226,-0.047 l 0.155,-0.046 c 0.378,-0.11 0.768,-0.224 1.236,-0.224 0.688,0 1.324,0.262 1.777,0.721 1.069,1.066 0.685,2.388 0.502,3.024 l -0.042,0.14 c -0.094,0.342 -0.52,1.852 -0.871,3.09 0,0 -0.329,2.161 0.246,3.983 0.575,1.818 2.381,3.074 2.389,3.079 l 0.245,0.135 0.142,0.083 c 1.131,0.631 2.487,1.394 2.79,1.565 l 0.148,0.08 c 0.573,0.317 1.769,0.976 1.769,2.48 0,1.497 -1.185,2.155 -1.754,2.47"
           style="fill:#ffffff;fill-opacity:1;fill-rule:nonzero;stroke:none"
           id="path1080" /></g><g
         id="g1082"><g
           id="g1084"
           clip-path="url(#clipPath1088)"><g
             id="g1090"><g
               id="g1092"><path
                 d="m 311.257,428.493 c 0,-8.146 6.602,-14.75 14.75,-14.75 v 0 c 8.142,0 14.746,6.604 14.746,14.75 v 0 c 0,8.144 -6.604,14.748 -14.746,14.748 v 0 c -8.148,0 -14.75,-6.604 -14.75,-14.748"
                 style="fill:url(#linearGradient1100);stroke:none"
                 id="path1102" /></g></g></g></g><g
         id="g1104"><g
           id="g1106"
           clip-path="url(#clipPath1110)"><g
             id="g1112"><g
               id="g1114" /><g
               id="g1176"><g
                 clip-path="url(#clipPath1118)"
                 id="g1174"
                 style="opacity:0.30000299"><g
                   id="g1172"><g
                     clip-path="url(#clipPath1122)"
                     id="g1170"><g
                       id="g1168"><g
                         id="g1160" /><g
                         mask="url(#mask1138)"
                         id="g1166"><g
                           id="g1164"><path
                             d="m 319.686,422.567 c -2.639,2.491 -3.604,5.891 -3.154,8.356 -0.422,-0.175 -0.795,-0.426 -1.104,-0.756 -1.982,-2.097 -1.496,-7.193 2.105,-10.596 3.602,-3.403 8.956,-3.824 10.938,-1.728 0.539,0.571 0.832,1.314 0.905,2.162 -2.471,-1.038 -6.689,-0.274 -9.69,2.562"
                             style="fill:url(#linearGradient1158);stroke:none"
                             id="path1162" /></g></g></g></g></g></g></g></g><g
             id="g1178"><g
               id="g1180" /><g
               id="g1192"><g
                 clip-path="url(#clipPath1184)"
                 id="g1190"
                 style="opacity:0.10000598"><g
                   transform="translate(322.8486,442.6294)"
                   id="g1188"><path
                     d="m 0,0 c 9.119,0 16.51,-7.392 16.51,-16.51 0,-2.001 -0.355,-3.919 -1.006,-5.693 1.517,2.317 2.4,5.088 2.4,8.066 0,8.145 -6.603,14.748 -14.746,14.748 -1.526,0 -2.997,-0.23 -4.381,-0.661 C -0.818,-0.02 -0.411,0 0,0"
                     style="fill:#d68949;fill-opacity:1;fill-rule:nonzero;stroke:none"
                     id="path1186" /></g></g></g></g><g
             id="g1194"
             transform="translate(329.2354,445.7573)"><path
               d="m 0,0 c -1.046,0.196 -2.125,0.298 -3.23,0.298 -1.1,0 -2.182,-0.102 -3.228,-0.295 0.003,0.138 0.049,0.295 0.147,0.466 0.025,0.046 0.059,0.104 0.095,0.173 0.028,0.045 0.056,0.094 0.083,0.146 0.162,0.292 0.392,0.699 0.644,1.148 0.632,1.128 1.396,2.494 1.572,2.804 0.272,0.489 0.424,0.82 0.687,0.82 0.266,0 0.414,-0.331 0.687,-0.82 0.175,-0.31 0.941,-1.676 1.573,-2.804 0.083,-0.151 0.167,-0.295 0.244,-0.432 0.048,-0.087 0.098,-0.173 0.142,-0.252 0.195,-0.35 0.353,-0.63 0.437,-0.783 C -0.05,0.298 -0.002,0.139 0,0"
               style="fill:#ffffff;fill-opacity:1;fill-rule:nonzero;stroke:none"
               id="path1196" /></g><g
             id="g1198"><g
               id="g1200" /><g
               id="g1212"><g
                 clip-path="url(#clipPath1204)"
                 id="g1210"
                 style="opacity:0.5"><g
                   transform="translate(329.2354,445.7573)"
                   id="g1208"><path
                     d="m 0,0 c -1.046,0.196 -2.125,0.298 -3.23,0.298 -1.1,0 -2.182,-0.102 -3.228,-0.295 0.003,0.138 0.049,0.295 0.147,0.466 0.025,0.046 0.059,0.104 0.095,0.173 0.028,0.045 0.056,0.094 0.083,0.146 0.162,0.292 0.392,0.699 0.644,1.148 0.654,-0.411 1.426,-0.651 2.259,-0.651 0.832,0 1.603,0.24 2.26,0.651 0.083,-0.151 0.167,-0.295 0.244,-0.432 0.048,-0.087 0.096,-0.173 0.142,-0.252 0.195,-0.35 0.353,-0.63 0.437,-0.783 C -0.05,0.298 -0.002,0.139 0,0"
                     style="fill:#ffffff;fill-opacity:1;fill-rule:nonzero;stroke:none"
                     id="path1206" /></g></g></g></g><g
             id="g1214"
             transform="translate(329.2354,411.228)"><path
               d="m 0,0 c -0.002,-0.138 -0.05,-0.297 -0.147,-0.469 -0.023,-0.043 -0.052,-0.095 -0.084,-0.153 -0.018,-0.027 -0.032,-0.059 -0.05,-0.09 -0.03,-0.049 -0.058,-0.103 -0.088,-0.158 -0.016,-0.028 -0.035,-0.059 -0.052,-0.091 -0.045,-0.078 -0.091,-0.161 -0.141,-0.251 -0.051,-0.092 -0.107,-0.189 -0.164,-0.294 -0.037,-0.061 -0.071,-0.125 -0.107,-0.189 -0.025,-0.043 -0.05,-0.086 -0.073,-0.13 -0.642,-1.15 -1.456,-2.598 -1.637,-2.918 -0.273,-0.487 -0.421,-0.816 -0.687,-0.816 -0.263,0 -0.415,0.329 -0.687,0.816 -0.178,0.32 -0.992,1.768 -1.636,2.918 -0.339,0.601 -0.633,1.123 -0.758,1.356 -0.098,0.172 -0.144,0.328 -0.147,0.467 1.046,-0.193 2.128,-0.295 3.228,-0.295 1.105,0 2.184,0.102 3.23,0.297"
               style="fill:#ffffff;fill-opacity:1;fill-rule:nonzero;stroke:none"
               id="path1216" /></g><g
             id="g1218"><g
               id="g1220" /><g
               id="g1232"><g
                 clip-path="url(#clipPath1224)"
                 id="g1230"
                 style="opacity:0.5"><g
                   transform="translate(329.2354,411.228)"
                   id="g1228"><path
                     d="m 0,0 c -0.002,-0.138 -0.05,-0.297 -0.147,-0.469 -0.023,-0.043 -0.052,-0.095 -0.084,-0.153 -0.018,-0.027 -0.035,-0.059 -0.05,-0.09 -0.03,-0.049 -0.058,-0.103 -0.088,-0.158 -0.016,-0.028 -0.035,-0.059 -0.052,-0.091 -0.045,-0.078 -0.091,-0.161 -0.141,-0.251 -0.051,-0.092 -0.107,-0.189 -0.164,-0.294 -0.037,-0.061 -0.071,-0.125 -0.107,-0.189 -0.025,-0.043 -0.05,-0.086 -0.073,-0.13 -0.021,-0.036 -0.04,-0.073 -0.064,-0.11 -0.657,0.407 -1.428,0.651 -2.26,0.651 -0.833,0 -1.605,-0.244 -2.259,-0.651 -0.022,0.037 -0.043,0.074 -0.064,0.11 -0.339,0.601 -0.633,1.123 -0.758,1.356 -0.098,0.172 -0.144,0.328 -0.147,0.467 1.046,-0.193 2.128,-0.295 3.228,-0.295 1.105,0 2.184,0.102 3.23,0.297"
                     style="fill:#ffffff;fill-opacity:1;fill-rule:nonzero;stroke:none"
                     id="path1226" /></g></g></g></g><g
             id="g1234"
             transform="translate(348.8281,428.4927)"><path
               d="m 0,0 c 0,-0.267 -0.328,-0.415 -0.816,-0.687 -0.311,-0.175 -1.675,-0.942 -2.808,-1.574 l -0.108,-0.064 c -0.125,-0.068 -0.245,-0.134 -0.361,-0.199 -0.091,-0.049 -0.177,-0.098 -0.255,-0.145 -0.157,-0.089 -0.3,-0.169 -0.42,-0.236 -0.053,-0.027 -0.101,-0.056 -0.147,-0.082 -0.069,-0.037 -0.127,-0.072 -0.173,-0.096 -0.174,-0.098 -0.335,-0.144 -0.471,-0.147 0.196,1.045 0.297,2.126 0.297,3.23 0,1.104 -0.101,2.183 -0.295,3.229 0.14,-0.005 0.295,-0.05 0.469,-0.149 0.153,-0.085 0.434,-0.242 0.782,-0.437 0.08,-0.046 0.167,-0.093 0.251,-0.142 0.14,-0.077 0.284,-0.16 0.433,-0.242 C -2.491,1.626 -1.127,0.862 -0.816,0.688 -0.328,0.412 0,0.265 0,0"
               style="fill:#ffffff;fill-opacity:1;fill-rule:nonzero;stroke:none"
               id="path1236" /></g><g
             id="g1238"><g
               id="g1240" /><g
               id="g1252"><g
                 clip-path="url(#clipPath1244)"
                 id="g1250"
                 style="opacity:0.5"><g
                   transform="translate(344.5547,428.4927)"
                   id="g1248"><path
                     d="M 0,0 C 0,-0.831 0.242,-1.604 0.649,-2.261 L 0.541,-2.325 C 0.416,-2.393 0.297,-2.459 0.181,-2.524 0.09,-2.573 0.004,-2.622 -0.074,-2.669 c -0.157,-0.089 -0.301,-0.169 -0.42,-0.236 -0.054,-0.027 -0.102,-0.056 -0.148,-0.082 -0.069,-0.037 -0.127,-0.072 -0.172,-0.096 -0.174,-0.098 -0.335,-0.144 -0.471,-0.147 0.195,1.045 0.297,2.126 0.297,3.23 0,1.104 -0.102,2.183 -0.295,3.229 C -1.144,3.224 -0.988,3.179 -0.814,3.08 -0.661,2.995 -0.381,2.838 -0.032,2.643 0.048,2.597 0.135,2.55 0.219,2.501 0.358,2.424 0.502,2.341 0.651,2.259 0.242,1.604 0,0.832 0,0"
                     style="fill:#ffffff;fill-opacity:1;fill-rule:nonzero;stroke:none"
                     id="path1246" /></g></g></g></g><g
             id="g1254"
             transform="translate(308.7393,425.2622)"><path
               d="m 0,0 c -0.137,0.004 -0.297,0.05 -0.468,0.147 -0.047,0.025 -0.104,0.059 -0.173,0.096 -0.041,0.024 -0.094,0.052 -0.146,0.082 -0.05,0.028 -0.102,0.055 -0.157,0.09 -0.034,0.018 -0.071,0.04 -0.108,0.058 -0.255,0.144 -0.557,0.312 -0.883,0.497 -1.128,0.632 -2.493,1.398 -2.804,1.574 -0.489,0.271 -0.82,0.42 -0.82,0.686 0,0.265 0.331,0.412 0.82,0.688 0.311,0.175 1.676,0.938 2.804,1.571 0.152,0.082 0.295,0.165 0.433,0.242 0.086,0.049 0.172,0.098 0.251,0.142 0.105,0.059 0.203,0.113 0.295,0.166 0.031,0.014 0.059,0.032 0.088,0.049 0.17,0.095 0.307,0.171 0.4,0.223 0.171,0.098 0.328,0.143 0.466,0.147 C -0.195,5.413 -0.297,4.335 -0.297,3.23 -0.297,2.127 -0.195,1.046 0,0"
               style="fill:#ffffff;fill-opacity:1;fill-rule:nonzero;stroke:none"
               id="path1256" /></g><g
             id="g1258"><g
               id="g1260" /><g
               id="g1272"><g
                 clip-path="url(#clipPath1264)"
                 id="g1270"
                 style="opacity:0.5"><g
                   transform="translate(308.7393,425.2622)"
                   id="g1268"><path
                     d="m 0,0 c -0.137,0.004 -0.297,0.05 -0.468,0.147 -0.047,0.025 -0.104,0.059 -0.173,0.096 -0.041,0.024 -0.094,0.052 -0.146,0.082 -0.05,0.028 -0.102,0.055 -0.157,0.09 -0.034,0.018 -0.071,0.04 -0.108,0.058 -0.255,0.144 -0.557,0.312 -0.883,0.497 0.411,0.656 0.651,1.429 0.651,2.26 0,0.833 -0.24,1.605 -0.651,2.259 0.152,0.082 0.295,0.165 0.433,0.242 0.088,0.049 0.172,0.096 0.251,0.142 0.105,0.059 0.203,0.113 0.295,0.166 0.031,0.014 0.059,0.032 0.088,0.049 0.17,0.095 0.307,0.171 0.4,0.223 0.171,0.098 0.328,0.143 0.466,0.147 C -0.195,5.413 -0.297,4.335 -0.297,3.23 -0.297,2.127 -0.195,1.046 0,0"
                     style="fill:#ffffff;fill-opacity:1;fill-rule:nonzero;stroke:none"
                     id="path1266" /></g></g></g></g><g
             id="g1274"
             transform="translate(342.0508,443.5669)"><path
               d="m 0,0 c -0.096,-0.344 -0.521,-1.854 -0.872,-3.097 -0.199,-0.716 -0.378,-1.346 -0.452,-1.616 -0.058,-0.19 -0.133,-0.334 -0.235,-0.436 -1.224,1.789 -2.774,3.339 -4.562,4.562 0.1,0.099 0.246,0.175 0.435,0.231 0.035,0.009 0.075,0.021 0.121,0.034 0.043,0.012 0.094,0.024 0.145,0.039 0.265,0.077 0.633,0.181 1.051,0.3 0.098,0.026 0.195,0.052 0.301,0.081 1.245,0.353 2.755,0.777 3.098,0.875 0.538,0.15 0.874,0.278 1.062,0.091 C 0.279,0.877 0.153,0.539 0,0"
               style="fill:#ffffff;fill-opacity:1;fill-rule:nonzero;stroke:none"
               id="path1276" /></g><g
             id="g1278"><g
               id="g1280" /><g
               id="g1292"><g
                 clip-path="url(#clipPath1284)"
                 id="g1290"
                 style="opacity:0.5"><g
                   transform="translate(341.1787,440.4702)"
                   id="g1288"><path
                     d="m 0,0 c -0.199,-0.717 -0.378,-1.347 -0.452,-1.616 -0.058,-0.191 -0.133,-0.334 -0.235,-0.437 -1.224,1.789 -2.774,3.34 -4.562,4.563 0.1,0.098 0.246,0.175 0.436,0.23 0.034,0.01 0.074,0.022 0.12,0.034 0.043,0.013 0.094,0.025 0.145,0.039 0.265,0.078 0.633,0.182 1.051,0.3 0.098,0.027 0.199,0.056 0.301,0.085 V 3.194 C -3.022,2.44 -2.645,1.726 -2.059,1.139 -1.47,0.55 -0.751,0.175 0,0"
                     style="fill:#ffffff;fill-opacity:1;fill-rule:nonzero;stroke:none"
                     id="path1286" /></g></g></g></g><g
             id="g1294"
             transform="translate(316.083,414.0024)"><path
               d="M 0,0 C -0.098,-0.096 -0.243,-0.175 -0.437,-0.23 -0.506,-0.248 -0.6,-0.276 -0.712,-0.31 -0.764,-0.321 -0.819,-0.338 -0.881,-0.356 -1.007,-0.391 -1.148,-0.43 -1.302,-0.473 -1.378,-0.494 -1.459,-0.52 -1.541,-0.541 -1.704,-0.589 -1.878,-0.638 -2.057,-0.688 -3.305,-1.037 -4.811,-1.461 -5.151,-1.556 -5.691,-1.71 -6.03,-1.838 -6.217,-1.647 c -0.186,0.186 -0.057,0.524 0.092,1.06 0.095,0.344 0.519,1.852 0.872,3.097 0.033,0.117 0.065,0.227 0.094,0.338 0.077,0.272 0.147,0.527 0.209,0.742 0.065,0.232 0.121,0.421 0.154,0.539 0.056,0.191 0.132,0.336 0.231,0.436 C -3.339,2.776 -1.79,1.227 0,0"
               style="fill:#ffffff;fill-opacity:1;fill-rule:nonzero;stroke:none"
               id="path1296" /></g><g
             id="g1298"><g
               id="g1300" /><g
               id="g1312"><g
                 clip-path="url(#clipPath1304)"
                 id="g1310"
                 style="opacity:0.5"><g
                   transform="translate(316.083,414.0024)"
                   id="g1308"><path
                     d="M 0,0 C -0.098,-0.096 -0.243,-0.175 -0.437,-0.23 -0.506,-0.248 -0.6,-0.276 -0.712,-0.31 -0.764,-0.321 -0.819,-0.338 -0.881,-0.356 -1.007,-0.391 -1.148,-0.43 -1.302,-0.473 -1.378,-0.494 -1.459,-0.52 -1.541,-0.541 -1.704,-0.589 -1.878,-0.638 -2.057,-0.688 -2.23,0.066 -2.604,0.785 -3.194,1.375 -3.781,1.961 -4.498,2.338 -5.253,2.51 c 0.033,0.117 0.065,0.227 0.094,0.338 0.077,0.272 0.147,0.527 0.209,0.742 0.065,0.232 0.121,0.421 0.154,0.539 0.056,0.191 0.132,0.336 0.231,0.436 C -3.339,2.776 -1.79,1.227 0,0"
                     style="fill:#ffffff;fill-opacity:1;fill-rule:nonzero;stroke:none"
                     id="path1306" /></g></g></g></g><g
             id="g1314"
             transform="translate(316.0801,442.98)"><path
               d="m 0,0 c -1.789,-1.223 -3.34,-2.773 -4.563,-4.563 -0.1,0.103 -0.179,0.247 -0.233,0.437 -0.053,0.185 -0.151,0.54 -0.273,0.976 -0.031,0.107 -0.062,0.22 -0.098,0.34 -0.025,0.098 -0.056,0.2 -0.083,0.3 -0.351,1.243 -0.777,2.753 -0.872,3.097 C -6.271,1.126 -6.4,1.464 -6.214,1.651 -6.027,1.838 -5.688,1.71 -5.148,1.56 -4.808,1.462 -3.299,1.038 -2.054,0.688 -1.952,0.656 -1.851,0.63 -1.753,0.604 -1.163,0.437 -0.666,0.296 -0.437,0.23 -0.246,0.175 -0.102,0.099 0,0"
               style="fill:#ffffff;fill-opacity:1;fill-rule:nonzero;stroke:none"
               id="path1316" /></g><g
             id="g1318"><g
               id="g1320" /><g
               id="g1332"><g
                 clip-path="url(#clipPath1324)"
                 id="g1330"
                 style="opacity:0.5"><g
                   transform="translate(316.0801,442.98)"
                   id="g1328"><path
                     d="m 0,0 c -1.789,-1.223 -3.34,-2.773 -4.563,-4.563 -0.1,0.103 -0.179,0.247 -0.233,0.437 -0.053,0.185 -0.151,0.54 -0.273,0.976 -0.031,0.107 -0.062,0.22 -0.098,0.34 -0.025,0.098 -0.056,0.2 -0.083,0.3 0.755,0.175 1.472,0.55 2.059,1.139 0.589,0.587 0.963,1.304 1.137,2.059 C -1.952,0.659 -1.851,0.63 -1.753,0.604 -1.163,0.437 -0.666,0.296 -0.437,0.23 -0.246,0.175 -0.102,0.099 0,0"
                     style="fill:#ffffff;fill-opacity:1;fill-rule:nonzero;stroke:none"
                     id="path1326" /></g></g></g></g><g
             id="g1334"
             transform="translate(342.1426,412.355)"><path
               d="M 0,0 C -0.188,-0.19 -0.523,-0.062 -1.062,0.092 -1.404,0.187 -2.915,0.613 -4.16,0.963 -4.266,0.991 -4.363,1.019 -4.461,1.047 -4.845,1.153 -5.186,1.251 -5.442,1.322 -5.496,1.338 -5.544,1.353 -5.586,1.361 -5.664,1.384 -5.726,1.403 -5.777,1.417 -5.967,1.473 -6.113,1.55 -6.213,1.651 -4.425,2.874 -2.875,4.424 -1.65,6.213 -1.549,6.112 -1.474,5.968 -1.416,5.776 -1.342,5.505 -1.163,4.874 -0.964,4.157 -0.611,2.912 -0.188,1.404 -0.092,1.064 0.062,0.524 0.188,0.187 0,0"
               style="fill:#ffffff;fill-opacity:1;fill-rule:nonzero;stroke:none"
               id="path1336" /></g><g
             id="g1338"><g
               id="g1340" /><g
               id="g1352"><g
                 clip-path="url(#clipPath1344)"
                 id="g1350"
                 style="opacity:0.5"><g
                   transform="translate(341.1787,416.5122)"
                   id="g1348"><path
                     d="m 0,0 c -0.755,-0.172 -1.47,-0.549 -2.059,-1.135 -0.586,-0.59 -0.963,-1.305 -1.137,-2.059 v -0.003 c -0.102,0.028 -0.203,0.058 -0.301,0.087 -0.384,0.106 -0.725,0.204 -0.982,0.275 -0.053,0.016 -0.101,0.03 -0.143,0.039 -0.078,0.023 -0.14,0.042 -0.191,0.056 -0.19,0.055 -0.336,0.133 -0.436,0.234 1.788,1.223 3.338,2.773 4.562,4.562 C -0.585,1.955 -0.51,1.811 -0.452,1.619 -0.378,1.348 -0.199,0.717 0,0"
                     style="fill:#ffffff;fill-opacity:1;fill-rule:nonzero;stroke:none"
                     id="path1346" /></g></g></g></g><g
             id="g1354"
             transform="translate(329.2354,445.7573)"><path
               d="m 0,0 c -1.046,0.196 -2.125,0.298 -3.23,0.298 -1.1,0 -2.182,-0.102 -3.228,-0.295 0.003,0.138 0.049,0.295 0.147,0.466 0.025,0.046 0.059,0.104 0.095,0.173 0.028,0.045 0.056,0.094 0.083,0.146 0.162,0.292 0.392,0.699 0.644,1.148 0.632,1.128 1.396,2.494 1.572,2.804 0.272,0.489 0.424,0.82 0.687,0.82 0.266,0 0.414,-0.331 0.687,-0.82 0.175,-0.31 0.941,-1.676 1.573,-2.804 0.083,-0.151 0.167,-0.295 0.244,-0.432 0.048,-0.087 0.098,-0.173 0.142,-0.252 0.195,-0.35 0.353,-0.63 0.437,-0.783 C -0.05,0.298 -0.002,0.139 0,0"
               style="fill:#f9ed32;fill-opacity:1;fill-rule:nonzero;stroke:none"
               id="path1356" /></g><g
             id="g1358"><g
               id="g1360" /><g
               id="g1390"><g
                 clip-path="url(#clipPath1364)"
                 id="g1388"
                 style="opacity:0.5"><g
                   id="g1386"><g
                     clip-path="url(#clipPath1368)"
                     id="g1384"><g
                       id="g1382"><g
                         id="g1380"><path
                           d="m 329.235,445.757 c -1.046,0.197 -2.125,0.298 -3.23,0.298 -1.1,0 -2.182,-0.101 -3.228,-0.295 0.003,0.138 0.049,0.295 0.148,0.466 0.024,0.046 0.058,0.105 0.095,0.173 0.027,0.045 0.055,0.095 0.083,0.146 0.162,0.292 0.391,0.7 0.643,1.148 0.654,-0.41 1.427,-0.651 2.259,-0.651 0.832,0 1.603,0.241 2.261,0.651 0.083,-0.151 0.167,-0.295 0.244,-0.432 0.048,-0.087 0.095,-0.173 0.141,-0.252 0.196,-0.349 0.353,-0.63 0.437,-0.783 0.098,-0.171 0.145,-0.33 0.147,-0.469"
                           style="fill:url(#linearGradient1376);stroke:none"
                           id="path1378" /></g></g></g></g></g></g></g><g
             id="g1392"
             transform="translate(329.2354,411.228)"><path
               d="m 0,0 c -0.002,-0.138 -0.05,-0.297 -0.147,-0.469 -0.023,-0.043 -0.052,-0.095 -0.084,-0.153 -0.018,-0.027 -0.032,-0.059 -0.05,-0.09 -0.03,-0.049 -0.058,-0.103 -0.088,-0.158 -0.016,-0.028 -0.035,-0.059 -0.052,-0.091 -0.045,-0.078 -0.091,-0.161 -0.141,-0.251 -0.051,-0.092 -0.107,-0.189 -0.164,-0.294 -0.037,-0.061 -0.071,-0.125 -0.107,-0.189 -0.025,-0.043 -0.05,-0.086 -0.073,-0.13 -0.642,-1.15 -1.456,-2.598 -1.637,-2.918 -0.273,-0.487 -0.421,-0.816 -0.687,-0.816 -0.263,0 -0.415,0.329 -0.687,0.816 -0.178,0.32 -0.992,1.768 -1.636,2.918 -0.339,0.601 -0.633,1.123 -0.758,1.356 -0.098,0.172 -0.144,0.328 -0.147,0.467 1.046,-0.193 2.128,-0.295 3.228,-0.295 1.105,0 2.184,0.102 3.23,0.297"
               style="fill:#f9ed32;fill-opacity:1;fill-rule:nonzero;stroke:none"
               id="path1394" /></g><g
             id="g1396"><g
               id="g1398" /><g
               id="g1428"><g
                 clip-path="url(#clipPath1402)"
                 id="g1426"
                 style="opacity:0.5"><g
                   id="g1424"><g
                     clip-path="url(#clipPath1406)"
                     id="g1422"><g
                       id="g1420"><g
                         id="g1418"><path
                           d="m 329.235,411.228 c -0.002,-0.138 -0.049,-0.297 -0.147,-0.469 -0.023,-0.043 -0.052,-0.095 -0.084,-0.153 -0.018,-0.027 -0.034,-0.059 -0.05,-0.09 -0.029,-0.049 -0.058,-0.103 -0.088,-0.158 -0.015,-0.028 -0.035,-0.059 -0.052,-0.091 -0.044,-0.078 -0.09,-0.161 -0.14,-0.251 -0.052,-0.092 -0.108,-0.189 -0.164,-0.294 -0.037,-0.061 -0.072,-0.125 -0.108,-0.189 -0.025,-0.043 -0.049,-0.086 -0.073,-0.13 -0.02,-0.036 -0.04,-0.073 -0.063,-0.11 -0.658,0.407 -1.429,0.651 -2.261,0.651 -0.832,0 -1.605,-0.244 -2.259,-0.651 -0.021,0.037 -0.043,0.074 -0.063,0.11 -0.339,0.601 -0.633,1.123 -0.758,1.356 -0.099,0.172 -0.145,0.328 -0.148,0.467 1.046,-0.193 2.128,-0.295 3.228,-0.295 1.105,0 2.184,0.102 3.23,0.297"
                           style="fill:url(#linearGradient1414);stroke:none"
                           id="path1416" /></g></g></g></g></g></g></g><g
             id="g1430"
             transform="translate(348.8281,428.4927)"><path
               d="m 0,0 c 0,-0.267 -0.328,-0.415 -0.816,-0.687 -0.311,-0.175 -1.675,-0.942 -2.808,-1.574 l -0.108,-0.064 c -0.125,-0.068 -0.245,-0.134 -0.361,-0.199 -0.091,-0.049 -0.177,-0.098 -0.255,-0.145 -0.157,-0.089 -0.3,-0.169 -0.42,-0.236 -0.053,-0.027 -0.101,-0.056 -0.147,-0.082 -0.069,-0.037 -0.127,-0.072 -0.173,-0.096 -0.174,-0.098 -0.335,-0.144 -0.471,-0.147 0.196,1.045 0.297,2.126 0.297,3.23 0,1.104 -0.101,2.183 -0.295,3.229 0.14,-0.005 0.295,-0.05 0.469,-0.149 0.153,-0.085 0.434,-0.242 0.782,-0.437 0.08,-0.046 0.167,-0.093 0.251,-0.142 0.14,-0.077 0.284,-0.16 0.433,-0.242 C -2.491,1.626 -1.127,0.862 -0.816,0.688 -0.328,0.412 0,0.265 0,0"
               style="fill:#f9ed32;fill-opacity:1;fill-rule:nonzero;stroke:none"
               id="path1432" /></g><g
             id="g1434"><g
               id="g1436" /><g
               id="g1466"><g
                 clip-path="url(#clipPath1440)"
                 id="g1464"
                 style="opacity:0.5"><g
                   id="g1462"><g
                     clip-path="url(#clipPath1444)"
                     id="g1460"><g
                       id="g1458"><g
                         id="g1456"><path
                           d="m 344.555,428.493 c 0,-0.831 0.242,-1.605 0.649,-2.261 l -0.108,-0.065 c -0.125,-0.067 -0.244,-0.133 -0.361,-0.199 -0.09,-0.049 -0.176,-0.097 -0.255,-0.144 -0.157,-0.089 -0.3,-0.169 -0.419,-0.237 -0.054,-0.026 -0.102,-0.055 -0.148,-0.082 -0.069,-0.037 -0.127,-0.071 -0.173,-0.095 -0.174,-0.098 -0.335,-0.144 -0.47,-0.148 0.195,1.046 0.296,2.127 0.296,3.231 0,1.104 -0.101,2.182 -0.295,3.228 0.14,-0.005 0.295,-0.05 0.469,-0.148 0.154,-0.085 0.434,-0.242 0.782,-0.438 0.081,-0.046 0.167,-0.093 0.251,-0.141 0.14,-0.077 0.284,-0.161 0.433,-0.243 -0.409,-0.654 -0.651,-1.426 -0.651,-2.258"
                           style="fill:url(#linearGradient1452);stroke:none"
                           id="path1454" /></g></g></g></g></g></g></g><g
             id="g1468"
             transform="translate(308.7393,425.2622)"><path
               d="m 0,0 c -0.137,0.004 -0.297,0.05 -0.468,0.147 -0.047,0.025 -0.104,0.059 -0.173,0.096 -0.041,0.024 -0.094,0.052 -0.146,0.082 -0.05,0.028 -0.102,0.055 -0.157,0.09 -0.034,0.018 -0.071,0.04 -0.108,0.058 -0.255,0.144 -0.557,0.312 -0.883,0.497 -1.128,0.632 -2.493,1.398 -2.804,1.574 -0.489,0.271 -0.82,0.42 -0.82,0.686 0,0.265 0.331,0.412 0.82,0.688 0.311,0.175 1.676,0.938 2.804,1.571 0.152,0.082 0.295,0.165 0.433,0.242 0.086,0.049 0.172,0.098 0.251,0.142 0.105,0.059 0.203,0.113 0.295,0.166 0.031,0.014 0.059,0.032 0.088,0.049 0.17,0.095 0.307,0.171 0.4,0.223 0.171,0.098 0.328,0.143 0.466,0.147 C -0.195,5.413 -0.297,4.335 -0.297,3.23 -0.297,2.127 -0.195,1.046 0,0"
               style="fill:#f9ed32;fill-opacity:1;fill-rule:nonzero;stroke:none"
               id="path1470" /></g><g
             id="g1472"><g
               id="g1474" /><g
               id="g1504"><g
                 clip-path="url(#clipPath1478)"
                 id="g1502"
                 style="opacity:0.5"><g
                   id="g1500"><g
                     clip-path="url(#clipPath1482)"
                     id="g1498"><g
                       id="g1496"><g
                         id="g1494"><path
                           d="m 308.739,425.262 c -0.136,0.004 -0.297,0.05 -0.468,0.148 -0.046,0.024 -0.104,0.058 -0.172,0.095 -0.041,0.024 -0.095,0.052 -0.147,0.082 -0.05,0.028 -0.101,0.055 -0.157,0.09 -0.033,0.018 -0.07,0.04 -0.107,0.058 -0.255,0.144 -0.558,0.312 -0.883,0.497 0.41,0.656 0.65,1.43 0.65,2.261 0,0.832 -0.24,1.604 -0.65,2.258 0.151,0.082 0.295,0.166 0.432,0.243 0.088,0.048 0.172,0.095 0.251,0.141 0.105,0.059 0.203,0.114 0.295,0.166 0.031,0.014 0.059,0.032 0.088,0.049 0.17,0.095 0.308,0.171 0.4,0.223 0.171,0.098 0.329,0.143 0.466,0.147 -0.193,-1.045 -0.295,-2.123 -0.295,-3.227 0,-1.104 0.102,-2.185 0.297,-3.231"
                           style="fill:url(#linearGradient1490);stroke:none"
                           id="path1492" /></g></g></g></g></g></g></g><g
             id="g1506"
             transform="translate(342.0508,443.5669)"><path
               d="m 0,0 c -0.096,-0.344 -0.521,-1.854 -0.872,-3.097 -0.199,-0.716 -0.378,-1.346 -0.452,-1.616 -0.058,-0.19 -0.133,-0.334 -0.235,-0.436 -1.224,1.789 -2.774,3.339 -4.562,4.562 0.1,0.099 0.246,0.175 0.435,0.231 0.035,0.009 0.075,0.021 0.121,0.034 0.043,0.012 0.094,0.024 0.145,0.039 0.265,0.077 0.633,0.181 1.051,0.3 0.098,0.026 0.195,0.052 0.301,0.081 1.245,0.353 2.755,0.777 3.098,0.875 0.538,0.15 0.874,0.278 1.062,0.091 C 0.279,0.877 0.153,0.539 0,0"
               style="fill:#f9ed32;fill-opacity:1;fill-rule:nonzero;stroke:none"
               id="path1508" /></g><g
             id="g1510"><g
               id="g1512" /><g
               id="g1542"><g
                 clip-path="url(#clipPath1516)"
                 id="g1540"
                 style="opacity:0.5"><g
                   id="g1538"><g
                     clip-path="url(#clipPath1520)"
                     id="g1536"><g
                       id="g1534"><g
                         id="g1532"><path
                           d="m 341.179,440.47 c -0.2,-0.717 -0.378,-1.346 -0.452,-1.616 -0.058,-0.19 -0.133,-0.334 -0.235,-0.437 -1.224,1.79 -2.774,3.34 -4.562,4.563 0.099,0.099 0.246,0.175 0.435,0.23 0.034,0.01 0.074,0.022 0.12,0.035 0.043,0.012 0.095,0.024 0.146,0.039 0.265,0.077 0.633,0.181 1.051,0.299 0.097,0.027 0.199,0.056 0.3,0.085 v -0.003 c 0.174,-0.754 0.552,-1.469 1.138,-2.056 0.589,-0.589 1.308,-0.964 2.059,-1.139"
                           style="fill:url(#linearGradient1528);stroke:none"
                           id="path1530" /></g></g></g></g></g></g></g><g
             id="g1544"
             transform="translate(316.083,414.0024)"><path
               d="M 0,0 C -0.098,-0.096 -0.243,-0.175 -0.437,-0.23 -0.506,-0.248 -0.6,-0.276 -0.712,-0.31 -0.764,-0.321 -0.819,-0.338 -0.881,-0.356 -1.007,-0.391 -1.148,-0.43 -1.302,-0.473 -1.378,-0.494 -1.459,-0.52 -1.541,-0.541 -1.704,-0.589 -1.878,-0.638 -2.057,-0.688 -3.305,-1.037 -4.811,-1.461 -5.151,-1.556 -5.691,-1.71 -6.03,-1.838 -6.217,-1.647 c -0.186,0.186 -0.057,0.524 0.092,1.06 0.095,0.344 0.519,1.852 0.872,3.097 0.033,0.117 0.065,0.227 0.094,0.338 0.077,0.272 0.147,0.527 0.209,0.742 0.065,0.232 0.121,0.421 0.154,0.539 0.056,0.191 0.132,0.336 0.231,0.436 C -3.339,2.776 -1.79,1.227 0,0"
               style="fill:#f9ed32;fill-opacity:1;fill-rule:nonzero;stroke:none"
               id="path1546" /></g><g
             id="g1548"><g
               id="g1550" /><g
               id="g1580"><g
                 clip-path="url(#clipPath1554)"
                 id="g1578"
                 style="opacity:0.5"><g
                   id="g1576"><g
                     clip-path="url(#clipPath1558)"
                     id="g1574"><g
                       id="g1572"><g
                         id="g1570"><path
                           d="m 316.083,414.002 c -0.098,-0.095 -0.243,-0.174 -0.437,-0.23 -0.069,-0.018 -0.163,-0.046 -0.275,-0.079 -0.052,-0.012 -0.107,-0.028 -0.169,-0.047 -0.126,-0.034 -0.267,-0.073 -0.421,-0.116 -0.076,-0.022 -0.157,-0.047 -0.239,-0.069 -0.163,-0.047 -0.337,-0.096 -0.516,-0.146 -0.173,0.754 -0.547,1.473 -1.137,2.062 -0.587,0.586 -1.304,0.963 -2.059,1.135 0.033,0.117 0.066,0.228 0.094,0.338 0.077,0.273 0.147,0.527 0.209,0.742 0.065,0.233 0.121,0.421 0.154,0.539 0.056,0.192 0.132,0.336 0.231,0.437 1.226,-1.789 2.775,-3.339 4.565,-4.566"
                           style="fill:url(#linearGradient1566);stroke:none"
                           id="path1568" /></g></g></g></g></g></g></g><g
             id="g1582"
             transform="translate(316.0801,442.98)"><path
               d="m 0,0 c -1.789,-1.223 -3.34,-2.773 -4.563,-4.563 -0.1,0.103 -0.179,0.247 -0.233,0.437 -0.053,0.185 -0.151,0.54 -0.273,0.976 -0.031,0.107 -0.062,0.22 -0.098,0.34 -0.025,0.098 -0.056,0.2 -0.083,0.3 -0.351,1.243 -0.777,2.753 -0.872,3.097 C -6.271,1.126 -6.4,1.464 -6.214,1.651 -6.027,1.838 -5.688,1.71 -5.148,1.56 -4.808,1.462 -3.299,1.038 -2.054,0.688 -1.952,0.656 -1.851,0.63 -1.753,0.604 -1.163,0.437 -0.666,0.296 -0.437,0.23 -0.246,0.175 -0.102,0.099 0,0"
               style="fill:#f9ed32;fill-opacity:1;fill-rule:nonzero;stroke:none"
               id="path1584" /></g><g
             id="g1586"><g
               id="g1588" /><g
               id="g1618"><g
                 clip-path="url(#clipPath1592)"
                 id="g1616"
                 style="opacity:0.5"><g
                   id="g1614"><g
                     clip-path="url(#clipPath1596)"
                     id="g1612"><g
                       id="g1610"><g
                         id="g1608"><path
                           d="m 316.08,442.98 c -1.789,-1.223 -3.34,-2.773 -4.562,-4.563 -0.101,0.103 -0.18,0.247 -0.234,0.437 -0.053,0.185 -0.151,0.54 -0.273,0.976 -0.031,0.107 -0.062,0.22 -0.098,0.34 -0.025,0.098 -0.056,0.2 -0.083,0.3 0.755,0.175 1.472,0.55 2.059,1.139 0.59,0.587 0.964,1.304 1.137,2.059 0.102,-0.029 0.203,-0.058 0.301,-0.085 0.59,-0.166 1.087,-0.307 1.317,-0.373 0.19,-0.055 0.335,-0.131 0.436,-0.23"
                           style="fill:url(#linearGradient1604);stroke:none"
                           id="path1606" /></g></g></g></g></g></g></g><g
             id="g1620"
             transform="translate(342.1426,412.355)"><path
               d="M 0,0 C -0.188,-0.19 -0.523,-0.062 -1.062,0.092 -1.404,0.187 -2.915,0.613 -4.16,0.963 -4.266,0.991 -4.363,1.019 -4.461,1.047 -4.845,1.153 -5.186,1.251 -5.442,1.322 -5.496,1.338 -5.544,1.353 -5.586,1.361 -5.664,1.384 -5.726,1.403 -5.777,1.417 -5.967,1.473 -6.113,1.55 -6.213,1.651 -4.425,2.874 -2.875,4.424 -1.65,6.213 -1.549,6.112 -1.474,5.968 -1.416,5.776 -1.342,5.505 -1.163,4.874 -0.964,4.157 -0.611,2.912 -0.188,1.404 -0.092,1.064 0.062,0.524 0.188,0.187 0,0"
               style="fill:#f9ed32;fill-opacity:1;fill-rule:nonzero;stroke:none"
               id="path1622" /></g><g
             id="g1624"><g
               id="g1626" /><g
               id="g1656"><g
                 clip-path="url(#clipPath1630)"
                 id="g1654"
                 style="opacity:0.5"><g
                   id="g1652"><g
                     clip-path="url(#clipPath1634)"
                     id="g1650"><g
                       id="g1648"><g
                         id="g1646"><path
                           d="m 341.179,416.512 c -0.755,-0.172 -1.47,-0.549 -2.059,-1.135 -0.586,-0.589 -0.964,-1.305 -1.138,-2.059 v -0.003 c -0.101,0.028 -0.203,0.059 -0.3,0.087 -0.384,0.106 -0.725,0.204 -0.982,0.275 -0.054,0.016 -0.101,0.031 -0.143,0.039 -0.078,0.023 -0.14,0.042 -0.192,0.056 -0.189,0.056 -0.336,0.133 -0.435,0.234 1.788,1.223 3.338,2.773 4.562,4.562 0.102,-0.101 0.177,-0.245 0.235,-0.437 0.074,-0.271 0.252,-0.902 0.452,-1.619"
                           style="fill:url(#linearGradient1642);stroke:none"
                           id="path1644" /></g></g></g></g></g></g></g><g
             id="g1658"
             transform="translate(366.4424,416.3247)"><path
               d="M 0,0 C -0.05,0 -0.098,-0.004 -0.146,-0.004 -0.054,0.686 0,1.388 0,2.102 c 0,8.671 -7.031,15.7 -15.7,15.7 -7.132,0 -13.149,-4.756 -15.062,-11.27 -0.384,0.034 -0.774,0.056 -1.169,0.056 -7.24,0 -13.105,-5.869 -13.105,-13.106 0,-7.239 5.865,-13.106 13.105,-13.106 H 0 c 5.419,0 9.811,4.392 9.811,9.811 C 9.811,-4.394 5.419,0 0,0"
               style="fill:#ffffff;fill-opacity:1;fill-rule:nonzero;stroke:none"
               id="path1660" /></g><g
             id="g1662"
             transform="translate(334.5117,393.3716)"><path
               d="m 0,0 c -9.063,0 -16.437,7.372 -16.437,16.436 0,8.678 6.767,15.809 15.303,16.393 3.03,6.735 9.842,11.254 17.364,11.254 10.224,0 18.59,-8.104 19.012,-18.225 5.649,-1.471 9.83,-6.615 9.83,-12.718 C 45.072,5.895 39.176,0 31.931,0 Z"
               style="fill:#ffffff;fill-opacity:1;fill-rule:nonzero;stroke:none"
               id="path1664" /></g></g></g><g
         id="g1666"><g
           id="g1668"
           clip-path="url(#clipPath1672)"><g
             id="g1674"><g
               id="g1676"><path
                 d="m 335.681,422.857 c -0.385,0.034 -0.775,0.056 -1.169,0.056 v 0 c -7.241,0 -13.106,-5.869 -13.106,-13.106 v 0 c 0,-7.239 5.865,-13.106 13.106,-13.106 v 0 h 31.93 c 5.419,0 9.811,4.391 9.811,9.81 v 0 c 0,5.42 -4.392,9.814 -9.811,9.814 v 0 c -0.049,0 -0.097,-0.004 -0.145,-0.004 v 0 c 0.092,0.689 0.145,1.391 0.145,2.105 v 0 c 0,8.672 -7.031,15.701 -15.699,15.701 v 0 c -7.133,0 -13.149,-4.757 -15.062,-11.27"
                 style="fill:url(#linearGradient5211);stroke:none"
                 id="path1686" /></g></g></g></g><g
         id="g1688"><g
           id="g1690"
           clip-path="url(#clipPath1694)"><g
             id="g1696"><g
               id="g1698"><path
                 d="m 335.681,422.857 c -0.385,0.034 -0.775,0.056 -1.169,0.056 v 0 c -7.241,0 -13.106,-5.869 -13.106,-13.106 v 0 c 0,-7.239 5.865,-13.106 13.106,-13.106 v 0 h 31.93 c 5.419,0 9.811,4.391 9.811,9.81 v 0 c 0,5.42 -4.392,9.814 -9.811,9.814 v 0 c -0.049,0 -0.097,-0.004 -0.145,-0.004 v 0 c 0.092,0.689 0.145,1.391 0.145,2.105 v 0 c 0,8.672 -7.031,15.701 -15.699,15.701 v 0 c -7.133,0 -13.149,-4.757 -15.062,-11.27"
                 style="fill:url(#linearGradient5213);stroke:none"
                 id="path1708" /></g></g></g></g><g
         id="g1718"
         transform="translate(373.9844,409.3013)"><path
           d="M 0,0 C -0.14,0.298 -0.285,0.577 -0.454,0.852 -0.279,0.581 -0.126,0.299 0,0"
           style="fill:#808285;fill-opacity:1;fill-rule:nonzero;stroke:none"
           id="path1720" /></g><g
         id="g1722"
         transform="translate(351.2832,432.1909)"><path
           d="m 0,0 c 0,0 9.173,-0.189 11.899,-9.637 0,0 -2.003,3.784 -5.044,6.245 C 3.82,-0.933 0,0 0,0"
           style="fill:#ffffff;fill-opacity:1;fill-rule:nonzero;stroke:none"
           id="path1724" /></g><g
         id="g1726"
         transform="translate(334.2031,421.4331)"><path
           d="m 0,0 c 0,0 -7.025,-0.353 -9.145,-6.021 0,0 3.631,4.81 9.145,6.021"
           style="fill:#ffffff;fill-opacity:1;fill-rule:nonzero;stroke:none"
           id="path1728" /></g><g
         id="g1730"><g
           id="g1732" /><g
           id="g1794"><g
             clip-path="url(#clipPath1736)"
             id="g1792"
             style="opacity:0.30000299"><g
               id="g1790"><g
                 clip-path="url(#clipPath1740)"
                 id="g1788"><g
                   id="g1786"><g
                     id="g1778" /><g
                     mask="url(#mask1756)"
                     id="g1784"><g
                       id="g1782"><path
                         d="m 335.206,398.346 c -8.618,0 -13.105,6.976 -13.127,15.589 -0.433,-1.299 -0.673,-2.685 -0.673,-4.128 0,-7.239 5.865,-13.106 13.106,-13.106 h 31.93 c 2.012,0 3.88,0.607 5.439,1.645 z"
                         style="fill:url(#linearGradient1776);stroke:none"
                         id="path1780" /></g></g></g></g></g></g></g></g></g></g></svg>